<svg xmlns="http://www.w3.org/2000/svg" width="125.426" height="114.428" viewBox="0 0 125.426 114.428"><defs><style>.a{fill:#0058a7;}</style></defs><path d="M116.945,22.446H8.481A8.491,8.491,0,0,0,0,30.927v72.194A8.491,8.491,0,0,0,8.481,111.6H23.027a1.837,1.837,0,1,0,0-3.675H8.481a4.812,4.812,0,0,1-4.806-4.806v-5.7a8.431,8.431,0,0,0,4.806,1.5H116.945a8.431,8.431,0,0,0,4.806-1.5v5.7a4.812,4.812,0,0,1-4.806,4.806H30.377a1.837,1.837,0,1,0,0,3.675H53.3L48,123.893H44.679a7.938,7.938,0,0,0-7.929,7.929v1.192a3.865,3.865,0,0,0,3.861,3.861h44.2a3.865,3.865,0,0,0,3.861-3.861v-1.192a7.938,7.938,0,0,0-7.929-7.929H77.422l-5.3-12.292h44.819a8.491,8.491,0,0,0,8.481-8.481V30.927a8.491,8.491,0,0,0-8.481-8.481ZM85,131.822v1.192a.186.186,0,0,1-.186.186h-44.2a.186.186,0,0,1-.186-.186v-1.192a4.259,4.259,0,0,1,4.254-4.254H80.747A4.259,4.259,0,0,1,85,131.822Zm-11.581-7.929H52.005L57.3,111.6H68.125Zm43.524-28.649H8.481a4.812,4.812,0,0,1-4.806-4.806V30.927a4.812,4.812,0,0,1,4.806-4.806H116.945a4.812,4.812,0,0,1,4.806,4.806V90.438A4.812,4.812,0,0,1,116.945,95.245Z" transform="translate(0 -22.446)"/><path class="a" d="M229.145,76.558l2.669-1.517V81.5a1.837,1.837,0,1,0,3.675,0V75.041l2.668,1.517a1.837,1.837,0,1,0,1.816-3.194c-5.933-3.373-5.468-3.119-5.651-3.191a1.84,1.84,0,0,0-1.568.107l-.011.005-5.414,3.079a1.837,1.837,0,1,0,1.816,3.194Z" transform="translate(-170.937 -58.386)"/><path class="a" d="M148.407,235.41l-5.593,3.221v-3.049a1.837,1.837,0,1,0-3.675,0c0,6.537-.28,7.153.934,7.828l5.371,3.136a1.837,1.837,0,0,0,1.853-3.173l-2.658-1.552,5.6-3.226a1.837,1.837,0,0,0-1.834-3.184Z" transform="translate(-105.033 -181.982)"/><path class="a" d="M333.886,233.745a1.837,1.837,0,0,0-1.837,1.837v3.049l-5.593-3.221a1.837,1.837,0,1,0-1.834,3.184l5.6,3.226-2.657,1.552a1.837,1.837,0,1,0,1.853,3.173c4.993-3,5.949-3.115,6.246-4.283.121-.474.019-.446.058-6.681A1.837,1.837,0,0,0,333.886,233.745Z" transform="translate(-244.403 -181.983)"/><path class="a" d="M223.414,141.057l-13.372-7.721a1.837,1.837,0,0,0-1.838,0l-13.372,7.721a1.838,1.838,0,0,0-.919,1.591c0,.046.006.091.009.137v15.3a1.837,1.837,0,0,0,.919,1.591l13.231,7.638c.04.028.079.057.122.082a1.835,1.835,0,0,0,.919.246h.02a1.835,1.835,0,0,0,.919-.246c.043-.025.082-.054.122-.082L223.4,159.68a1.837,1.837,0,0,0,.919-1.591v-15.3c0-.046.009-.091.009-.137A1.836,1.836,0,0,0,223.414,141.057Zm-14.29-4.008,9.693,5.6-9.693,5.6-9.693-5.6ZM197.6,145.836l9.678,5.588v11.191l-9.678-5.587Zm13.373,16.78V151.424l9.678-5.588v11.192Z" transform="translate(-146.41 -105.985)"/><path d="M45.626,65.678H37.052A3.556,3.556,0,0,0,33.5,69.23v43.5a3.556,3.556,0,0,0,3.552,3.552h8.574a3.556,3.556,0,0,0,3.552-3.552V69.23A3.556,3.556,0,0,0,45.626,65.678Zm-.122,46.93H37.175V69.353H45.5Z" transform="translate(-25.293 -55.087)"/><path d="M57,106.415h1.388a1.837,1.837,0,0,0,0-3.675H57a1.837,1.837,0,0,0,0,3.675Z" transform="translate(-41.653 -83.07)"/><path d="M57,145.565h1.388a1.837,1.837,0,1,0,0-3.675H57a1.837,1.837,0,0,0,0,3.675Z" transform="translate(-41.653 -112.63)"/><path d="M57,184.715h1.388a1.837,1.837,0,0,0,0-3.675H57a1.837,1.837,0,0,0,0,3.675Z" transform="translate(-41.653 -142.189)"/><path d="M57,223.865h1.388a1.837,1.837,0,1,0,0-3.675H57a1.837,1.837,0,0,0,0,3.675Z" transform="translate(-41.653 -171.748)"/><path d="M384.486,56.066H360.922a3.065,3.065,0,0,0-3.062,3.062V79.106a3.065,3.065,0,0,0,3.062,3.062h23.564a3.066,3.066,0,0,0,3.062-3.062V59.128A3.066,3.066,0,0,0,384.486,56.066Zm-.612,22.427H361.535V59.741h22.339Z" transform="translate(-270.194 -47.83)"/><path d="M388.792,92.516h5.634a1.837,1.837,0,1,0,0-3.675h-5.634a1.837,1.837,0,0,0,0,3.675Z" transform="translate(-292.162 -72.576)"/><path d="M388.792,118.516h11.759a1.837,1.837,0,1,0,0-3.675H388.792a1.837,1.837,0,1,0,0,3.675Z" transform="translate(-292.162 -92.207)"/></svg>