<svg xmlns="http://www.w3.org/2000/svg" width="16.391" height="16.391" viewBox="0 0 16.391 16.391"><defs><style>.a{fill:#0058a7;}</style></defs><g transform="translate(3.892 2.059)"><path class="a" d="M133.6,64.509a.618.618,0,0,0-.873,0L125.314,71.9,122.64,69a.618.618,0,0,0-.909.837l3.109,3.377a.617.617,0,0,0,.441.2h.013a.618.618,0,0,0,.436-.18l7.866-7.845A.618.618,0,0,0,133.6,64.509Z" transform="translate(-121.568 -64.327)"/></g><path class="a" d="M15.773,7.578a.618.618,0,0,0-.618.618A6.96,6.96,0,1,1,8.2,1.236.618.618,0,1,0,8.2,0a8.2,8.2,0,1,0,8.2,8.2A.618.618,0,0,0,15.773,7.578Z"/></svg>