<svg xmlns="http://www.w3.org/2000/svg" width="360" height="340" viewBox="0 0 360 340"><defs><style>.a{fill:#0058a7;}.b,.c{fill:#fff;}.b{font-size:25px;font-family:RobotoCondensed-Bold, Roboto;font-weight:700;}</style></defs><rect class="a" width="360" height="340"/><g transform="translate(2 32.147)"><text class="b" transform="translate(0 212.421)"><tspan x="84.433" y="26">BADANIE WZROKU</tspan><tspan x="95.639" y="53">TO FUNDAMENT</tspan></text><g transform="translate(78.779)"><path class="c" d="M421.983,222.809a9.123,9.123,0,1,0-9.123-9.123A9.133,9.133,0,0,0,421.983,222.809Zm0-12.4a3.282,3.282,0,1,1-3.281,3.281A3.285,3.285,0,0,1,421.983,210.4Z" transform="translate(-252.038 -128.993)"/><path class="c" d="M61.422,204.563a9.123,9.123,0,1,0,9.123,9.123A9.133,9.133,0,0,0,61.422,204.563Zm0,12.4a3.282,3.282,0,1,1,3.281-3.282A3.285,3.285,0,0,1,61.422,216.968Z" transform="translate(-31.927 -128.993)"/><path class="c" d="M117.346,298.22a22.359,22.359,0,1,0,22.359,22.359A22.385,22.385,0,0,0,117.346,298.22Zm0,38.877a16.518,16.518,0,1,1,16.518-16.518A16.536,16.536,0,0,1,117.346,337.1Z" transform="translate(-57.987 -186.168)"/><path class="c" d="M134.929,327.023a11.14,11.14,0,1,0,11.14,11.139A11.152,11.152,0,0,0,134.929,327.023Zm0,16.438a5.3,5.3,0,1,1,5.3-5.3A5.3,5.3,0,0,1,134.929,343.461Z" transform="translate(-75.569 -203.751)"/><path class="c" d="M240.917,234.017a9.625,9.625,0,1,0,9.625,9.625A9.635,9.635,0,0,0,240.917,234.017Zm0,13.408a3.784,3.784,0,1,1,3.784-3.784A3.788,3.788,0,0,1,240.917,247.425Z" transform="translate(-141.197 -146.974)"/><path class="c" d="M184.241,106.7A18.315,18.315,0,0,0,164.33,77.812H113.935V68.931a4.869,4.869,0,0,0-4.863-4.863h-.727V41.661h37.764a5.08,5.08,0,0,0,5.075-5.075V16.206a5.652,5.652,0,0,0-5.646-5.646H134.729a5.652,5.652,0,0,0-5.646,5.646v7.175H91.094a5.081,5.081,0,0,0-5.075,5.075v8.131a5.081,5.081,0,0,0,5.075,5.075V64.068h-.727A4.869,4.869,0,0,0,85.5,68.932v8.881H66.521a2.921,2.921,0,1,0,0,5.841h13.5v9.562H47.7a18.241,18.241,0,0,0-4.035-9.562h9.32a2.921,2.921,0,1,0,0-5.841H35.109A18.312,18.312,0,0,0,15.2,106.7a48.8,48.8,0,0,0,11.377,78.833v8.242a8,8,0,0,0,7.981,8,8.05,8.05,0,0,0,1.878-.223c13.425-3.212,25.057-8.127,34.574-14.606,16.233-11.053,25.212-25.926,26.687-44.206q.009-.117.009-.235v-7.428a19.881,19.881,0,0,0,4.032,0V142.5c0,.078,0,.157.009.235,1.476,18.281,10.454,33.154,26.687,44.206,9.517,6.479,21.149,11.394,34.574,14.606a8.069,8.069,0,0,0,1.878.223,8,8,0,0,0,7.981-8v-8.244a48.8,48.8,0,0,0,11.377-78.83Zm-14.3-23.927a12.483,12.483,0,1,1-12.483,12.483A12.5,12.5,0,0,1,169.945,82.77Zm-50.522.883h36.349a18.244,18.244,0,0,0-4.035,9.562H119.422Zm15.5-67.252h10.418v6.98H134.925ZM91.861,29.222h53.482v6.6H91.861ZM102.5,41.662V64.068H96.936V41.662ZM91.346,69.91h16.749v7.9H91.346ZM26.575,178.838a42.957,42.957,0,0,1-7.035-68.213,18.207,18.207,0,0,0,7.035,2.717Zm2.921-71.1A12.483,12.483,0,1,1,41.978,95.253,12.5,12.5,0,0,1,29.5,107.736Zm62.367,34.647c-2.93,35.41-36.828,48.71-56.789,53.486a2.156,2.156,0,0,1-2.657-2.1v-80.43a18.371,18.371,0,0,0,15-14.284h32.6v16.418a19.729,19.729,0,0,0,11.845,18.063v8.845Zm7.857-13.047a13.877,13.877,0,0,1-13.861-13.861V83.653h27.723v31.821A13.877,13.877,0,0,1,99.72,129.336Zm73.145,49.507V133.762a2.921,2.921,0,1,0-5.841,0v60.009a2.156,2.156,0,0,1-2.657,2.1c-19.961-4.776-53.859-18.076-56.789-53.486v-8.845a19.728,19.728,0,0,0,11.845-18.063V99.057h32.6a18.371,18.371,0,0,0,15,14.284v6.889a2.921,2.921,0,0,0,5.841,0v-6.888a18.213,18.213,0,0,0,7.034-2.718,42.962,42.962,0,0,1-7.034,68.219Z" transform="translate(0 -10.56)"/><path class="c" d="M342.155,327.023a11.14,11.14,0,1,0,11.14,11.139A11.152,11.152,0,0,0,342.155,327.023Zm0,16.438a5.3,5.3,0,1,1,5.3-5.3A5.3,5.3,0,0,1,342.155,343.461Z" transform="translate(-202.074 -203.751)"/><path class="c" d="M324.572,298.22a22.359,22.359,0,1,0,22.359,22.359A22.385,22.385,0,0,0,324.572,298.22Zm0,38.877a16.518,16.518,0,1,1,16.518-16.518A16.537,16.537,0,0,1,324.572,337.1Z" transform="translate(-184.491 -186.168)"/></g></g></svg>