<svg xmlns="http://www.w3.org/2000/svg" width="114.402" height="114.428" viewBox="0 0 114.402 114.428"><defs><style>.a{fill:#0058a7;}</style></defs><path class="a" d="M324.751,88.894a1.429,1.429,0,0,0,2.022,0l4.11-4.109a1.43,1.43,0,1,0-2.023-2.023l-4.109,4.109A1.43,1.43,0,0,0,324.751,88.894Zm0,0" transform="translate(-233.842 -59.345)"/><path class="a" d="M302.469,69.42A1.425,1.425,0,0,0,303.48,69l7.543-7.543A1.43,1.43,0,0,0,309,59.435l-7.543,7.544a1.43,1.43,0,0,0,1.011,2.441Zm0,0" transform="translate(-217.055 -42.532)"/><path d="M257.161,61.705a20.51,20.51,0,0,0,20.486-20.486,20.291,20.291,0,0,0-1.9-8.585,1.427,1.427,0,0,0-1.3-.829H239.878a1.43,1.43,0,0,0-1.3.829,20.3,20.3,0,0,0-1.9,8.585,20.51,20.51,0,0,0,20.485,20.486Zm-16.345-27.04h32.692a17.4,17.4,0,0,1,1.279,6.554,17.625,17.625,0,1,1-35.25,0,17.383,17.383,0,0,1,1.28-6.554Zm0,0" transform="translate(-170.668 -22.921)"/><path d="M49.923,61.705A20.456,20.456,0,0,0,68.506,32.633a1.431,1.431,0,0,0-1.3-.829H32.639a1.43,1.43,0,0,0-1.3.829,20.3,20.3,0,0,0-1.9,8.585A20.51,20.51,0,0,0,49.923,61.705ZM33.578,34.665H66.269a17.41,17.41,0,0,1,1.28,6.554,17.626,17.626,0,0,1-35.251,0,17.384,17.384,0,0,1,1.28-6.554Zm0,0" transform="translate(-21.312 -22.921)"/><path d="M1.3,45.226l.779,1.592a3.417,3.417,0,0,0,5.5.9l6.773-6.88a27.454,27.454,0,0,0,14.817,4.344A27.683,27.683,0,0,0,56.828,17.525a27.3,27.3,0,0,0-1.184-7.879,4.423,4.423,0,0,1,4.912.036,27.339,27.339,0,0,0-1.149,7.843A27.683,27.683,0,0,0,87.058,45.178,27.449,27.449,0,0,0,101.437,41.1l6.509,6.613a3.417,3.417,0,0,0,5.5-.9l.778-1.592a6.468,6.468,0,0,0-1.2-7.367l-3.809-3.868a27.471,27.471,0,0,0,5.489-16.466c0-4-1.451-10.416-4.143-14.427-.026-.039-.067-.06-.1-.1a1.442,1.442,0,0,0-.205-.2,1.4,1.4,0,0,0-.225-.152,1.33,1.33,0,0,0-.241-.1,1.356,1.356,0,0,0-.295-.059,1.239,1.239,0,0,0-.127-.026H65.407a12.185,12.185,0,0,0-14.691,0H6.893a1.281,1.281,0,0,0-.129.026,1.38,1.38,0,0,0-.283.057,1.408,1.408,0,0,0-.249.1,1.36,1.36,0,0,0-.221.149A1.336,1.336,0,0,0,5.8,3c-.028.034-.069.053-.094.092C3.244,6.708,1.525,13.6,1.525,17.525A27.472,27.472,0,0,0,6.71,33.586L2.5,37.86a6.469,6.469,0,0,0-1.2,7.366Zm109.687-5.36a3.6,3.6,0,0,1,.668,4.1l-.778,1.592a.557.557,0,0,1-.9.145l-6.151-6.248a27.82,27.82,0,0,0,3.555-3.252ZM7.708,5.321h43.5a1.421,1.421,0,0,0,.927-.341,9.971,9.971,0,0,1,5.921-2.12,10.119,10.119,0,0,1,5.922,2.122,1.431,1.431,0,0,0,.93.344h43.656a27.259,27.259,0,0,1,3.285,12.2,24.792,24.792,0,1,1-49.584,0,24.526,24.526,0,0,1,1.319-7.931,1.432,1.432,0,0,0-.4-1.53,7.442,7.442,0,0,0-10.137-.022.051.051,0,0,0-.008.008.052.052,0,0,0-.012.01,1.334,1.334,0,0,0-.1.143,1.483,1.483,0,0,0-.217.3,1.426,1.426,0,0,0-.07.26,1.369,1.369,0,0,0-.065.272,1.469,1.469,0,0,0,.047.357,1.513,1.513,0,0,0,.024.185,24.478,24.478,0,0,1,1.327,7.949,24.792,24.792,0,1,1-49.584,0,29.327,29.327,0,0,1,3.323-12.2ZM4.541,39.866l3.969-4.032A27.809,27.809,0,0,0,12,39.155l-6.45,6.551a.539.539,0,0,1-.484.159.545.545,0,0,1-.411-.3l-.778-1.592a3.6,3.6,0,0,1,.667-4.1Zm0,0" transform="translate(-0.566 0)"/><path class="a" d="M324.751,324.015a1.429,1.429,0,0,0,2.022,0l4.11-4.11a1.43,1.43,0,1,0-2.023-2.022l-4.109,4.109A1.43,1.43,0,0,0,324.751,324.015Zm0,0" transform="translate(-233.842 -228.796)"/><path class="a" d="M302.469,304.544a1.425,1.425,0,0,0,1.01-.419l7.543-7.543A1.43,1.43,0,0,0,309,294.56l-7.543,7.543a1.43,1.43,0,0,0,1.011,2.441Zm0,0" transform="translate(-217.055 -211.986)"/><path d="M2.06,248.283a6.193,6.193,0,0,0-.991,7.191l.8,1.567a3.483,3.483,0,0,0,3.109,1.913,3.205,3.205,0,0,0,2.305-.962L13.38,251.8a27.709,27.709,0,0,0,40.978-32.511,7.66,7.66,0,0,1,6.386-.011A27.714,27.714,0,0,0,101.717,251.8l6.068,6.164a3.263,3.263,0,0,0,2.341.98,3.594,3.594,0,0,0,.537-.041,3.488,3.488,0,0,0,2.564-1.873l.8-1.574a6.273,6.273,0,0,0-1.055-7.244l-3.551-3.607a27.733,27.733,0,0,0-44.238-33.446,14.18,14.18,0,0,0-7.614-2.035,14.156,14.156,0,0,0-7.634,2.047A27.733,27.733,0,0,0,5.682,244.6Zm3.189,7.7a.394.394,0,0,1-.357.1.648.648,0,0,1-.474-.35l-.8-1.567A3.338,3.338,0,0,1,4.1,250.29l3.4-3.451a27.882,27.882,0,0,0,3.513,3.295Zm105.681-5.767a3.418,3.418,0,0,1,.541,3.95l-.8,1.574a.617.617,0,0,1-.454.336.447.447,0,0,1-.4-.12l-5.732-5.824a28.017,28.017,0,0,0,3.511-3.295Zm-23.95-46.824a24.912,24.912,0,1,1-24.91,24.912A24.94,24.94,0,0,1,86.979,203.394Zm-29.415,8.591a11.488,11.488,0,0,1,5.965,1.511,27.583,27.583,0,0,0-1.716,3.142,10.381,10.381,0,0,0-8.522.01,27.791,27.791,0,0,0-1.713-3.14,11.464,11.464,0,0,1,5.986-1.523Zm-29.445-8.591A24.912,24.912,0,1,1,3.207,228.306,24.939,24.939,0,0,1,28.119,203.394Zm0,0" transform="translate(-0.348 -144.525)"/><path d="M258.018,268.986a20.345,20.345,0,1,0-20.346-20.346A20.369,20.369,0,0,0,258.018,268.986Zm0-37.829a17.484,17.484,0,1,1-17.485,17.484A17.5,17.5,0,0,1,258.018,231.157Zm0,0" transform="translate(-171.386 -164.532)"/><path d="M47.279,268.986a20.345,20.345,0,1,0-20.346-20.346A20.368,20.368,0,0,0,47.279,268.986Zm0-37.829a17.484,17.484,0,1,1-17.486,17.484,17.5,17.5,0,0,1,17.486-17.484Zm0,0" transform="translate(-19.508 -164.532)"/></svg>