<svg xmlns="http://www.w3.org/2000/svg" width="114.429" height="114.428" viewBox="0 0 114.429 114.428"><defs><style>.a{fill:#0058a7;}</style></defs><path class="a" d="M18.945,53.335a15.631,15.631,0,0,0,.738,3.138,1.839,1.839,0,1,0,3.507-1.107,27.511,27.511,0,0,1-.738-3.322,2.132,2.132,0,0,0-2.215-2.215,1.588,1.588,0,0,1-1.476-1.476V40.231a1.588,1.588,0,0,1,1.476-1.476,2.1,2.1,0,0,0,2.215-2.03,19.921,19.921,0,0,1,.554-3.507,25.58,25.58,0,0,0,9.228,1.661,27.4,27.4,0,0,0,20.3-9.044,17.072,17.072,0,0,0,12.55,5.721A16.459,16.459,0,0,0,69.146,31a19.855,19.855,0,0,1,1.292,5.721,2.132,2.132,0,0,0,2.215,2.215,1.507,1.507,0,0,1,1.661,1.476v8.121a1.588,1.588,0,0,1-1.476,1.476,2.1,2.1,0,0,0-2.215,2.03A14.489,14.489,0,0,1,69.7,56.1c-.923,2.584,2.584,3.322,3.322,1.292a19.943,19.943,0,0,0,.923-3.876,5.15,5.15,0,0,0,3.876-4.983V40.415a5.119,5.119,0,0,0-4.06-4.983,25.261,25.261,0,0,0-4.8-12.181,24.626,24.626,0,0,0-12.735-8.859A35.142,35.142,0,0,0,46.26,13.1a34.516,34.516,0,0,0-6.275.554,1.882,1.882,0,1,0,.738,3.691,27.938,27.938,0,0,1,5.537-.369,27.816,27.816,0,0,1,8.859,1.292A21.3,21.3,0,0,1,66.008,25.65c.554.738.738,1.107,1.292,1.846a9.753,9.753,0,0,1-2.215.185,13.724,13.724,0,0,1-11.074-5.906,1.989,1.989,0,0,0-3.138,0,23.6,23.6,0,0,1-18.825,9.413,23.491,23.491,0,0,1-8.121-1.476,20.09,20.09,0,0,1,8.305-9.6,2.043,2.043,0,0,0,.738-2.584,2.043,2.043,0,0,0-2.584-.738A24.463,24.463,0,0,0,18.576,35.247,5.15,5.15,0,0,0,14.7,40.231v8.121a5.505,5.505,0,0,0,4.245,4.983Z" transform="translate(10.585 9.232)"/><path class="a" d="M60.04,42.751a1.867,1.867,0,0,0-2.584.738l-1.477,2.584a16.919,16.919,0,0,1-14.765,8.674,17.439,17.439,0,0,1-14.95-8.674L24.6,43.12a2.043,2.043,0,0,0-2.584-.738,2.043,2.043,0,0,0-.738,2.584l1.846,2.953a20.809,20.809,0,0,0,36.174,0l1.476-2.584a2.043,2.043,0,0,0-.738-2.584Z" transform="translate(16 33.842)"/><path d="M12.258,71.147H7.275a2.779,2.779,0,0,1-2.584-2.584V50.846A1.744,1.744,0,0,0,2.846,49,1.744,1.744,0,0,0,1,50.846V68.564a6.468,6.468,0,0,0,6.275,6.275h4.983a1.846,1.846,0,1,0,0-3.691Z" transform="translate(-1 39.59)"/><path d="M16.283,61H13.146a1.846,1.846,0,1,0,0,3.691h3.138a1.846,1.846,0,1,0,0-3.691Z" transform="translate(7.71 49.737)"/><path d="M72.993,49a1.744,1.744,0,0,0-1.846,1.846V68.564a2.779,2.779,0,0,1-2.584,2.584H50.846a1.846,1.846,0,1,0,0,3.691H68.564a6.468,6.468,0,0,0,6.275-6.275V50.846A1.744,1.744,0,0,0,72.993,49Z" transform="translate(39.59 39.59)"/><path d="M62.475,1H58.046A1.744,1.744,0,0,0,56.2,2.846a1.744,1.744,0,0,0,1.846,1.846h4.429a2.779,2.779,0,0,1,2.584,2.584V24.993a1.846,1.846,0,0,0,3.691,0V7.275A6.468,6.468,0,0,0,62.475,1Z" transform="translate(45.678 -1)"/><path d="M50.846,4.691H55.46a1.744,1.744,0,0,0,1.846-1.846A1.744,1.744,0,0,0,55.46,1H50.846A1.744,1.744,0,0,0,49,2.846,1.744,1.744,0,0,0,50.846,4.691Z" transform="translate(39.59 -1)"/><path d="M2.846,26.839a1.744,1.744,0,0,0,1.846-1.846V7.275A2.779,2.779,0,0,1,7.275,4.691H24.993a1.744,1.744,0,0,0,1.846-1.846A1.744,1.744,0,0,0,24.993,1H7.275A6.468,6.468,0,0,0,1,7.275V24.993a1.744,1.744,0,0,0,1.846,1.846Z" transform="translate(-1 -1)"/><path class="a" d="M84.24,39H37.546a1.846,1.846,0,0,0,0,3.691H84.24a1.846,1.846,0,0,0,0-3.691Z" transform="translate(28.343 31.134)"/><path class="a" d="M9.646,42.691H52.279a1.846,1.846,0,0,0,0-3.691H9.646a1.846,1.846,0,1,0,0,3.691Z" transform="translate(4.75 31.134)"/><path class="a" d="M2.846,42.691H7.091a1.846,1.846,0,1,0,0-3.691H2.846a1.846,1.846,0,1,0,0,3.691Z" transform="translate(-1 31.134)"/><path d="M16.074,6.846A1.744,1.744,0,0,0,14.228,5H9.614A4.569,4.569,0,0,0,5,9.614v4.614a1.744,1.744,0,0,0,1.846,1.846,1.744,1.744,0,0,0,1.846-1.846V9.614a1.185,1.185,0,0,1,.923-.923h4.614A1.744,1.744,0,0,0,16.074,6.846Z" transform="translate(2.382 2.382)"/><path d="M62.228,16.074a1.744,1.744,0,0,0,1.846-1.846V9.614A4.569,4.569,0,0,0,59.46,5H54.846A1.744,1.744,0,0,0,53,6.846a1.744,1.744,0,0,0,1.846,1.846H59.46a1.185,1.185,0,0,1,.923.923v4.614A1.744,1.744,0,0,0,62.228,16.074Z" transform="translate(42.972 2.382)"/><path d="M59.46,64.074a4.569,4.569,0,0,0,4.614-4.614V54.846a1.846,1.846,0,0,0-3.691,0V59.46a1.185,1.185,0,0,1-.923.923H54.846a1.846,1.846,0,1,0,0,3.691Z" transform="translate(42.972 42.972)"/><path d="M14.228,60.382H9.614a1.185,1.185,0,0,1-.923-.923V54.846A1.744,1.744,0,0,0,6.846,53,1.744,1.744,0,0,0,5,54.846V59.46a4.569,4.569,0,0,0,4.614,4.614h4.614a1.846,1.846,0,1,0,0-3.691Z" transform="translate(2.382 42.972)"/></svg>