<svg xmlns="http://www.w3.org/2000/svg" width="19.029" height="33.527" viewBox="0 0 19.029 33.527"><defs><style>.a{fill:#fff;}</style></defs><path class="a" d="M12.254,33.527H6.885A1.628,1.628,0,0,1,5.259,31.9V19.79H2.126A1.628,1.628,0,0,1,.5,18.164V12.975a1.628,1.628,0,0,1,1.626-1.626H5.259V8.75A8.848,8.848,0,0,1,7.6,2.411,8.427,8.427,0,0,1,13.811,0l4.095.007A1.629,1.629,0,0,1,19.53,1.633V6.451A1.628,1.628,0,0,1,17.9,8.077H15.147c-.841,0-1.055.169-1.1.22-.075.086-.165.328-.165,1v2.053H17.7a1.653,1.653,0,0,1,.8.2,1.632,1.632,0,0,1,.837,1.422l0,5.189A1.628,1.628,0,0,1,17.71,19.79H13.881V31.9a1.628,1.628,0,0,1-1.627,1.626Zm-5.03-1.966h4.691V18.91A1.087,1.087,0,0,1,13,17.825H17.37l0-4.511H13a1.087,1.087,0,0,1-1.086-1.086V9.3A3.347,3.347,0,0,1,12.573,7a3.331,3.331,0,0,1,2.574-.885h2.418V1.971L13.81,1.965c-4.061,0-6.585,2.6-6.585,6.785v3.478a1.087,1.087,0,0,1-1.086,1.086H2.466v4.511H6.139A1.087,1.087,0,0,1,7.224,18.91ZM17.9,1.972h0Zm0,0" transform="translate(-0.5 0)"/></svg>