<svg xmlns="http://www.w3.org/2000/svg" width="15.608" height="27.5" viewBox="0 0 15.608 27.5"><defs><style>.a{fill:#64707e;}</style></defs><path class="a" d="M10.141,27.5h-4.4A1.335,1.335,0,0,1,4.4,26.166V16.232H1.834A1.336,1.336,0,0,1,.5,14.9V10.642A1.335,1.335,0,0,1,1.834,9.308H4.4V7.177a7.257,7.257,0,0,1,1.919-5.2A6.912,6.912,0,0,1,11.418,0l3.359.005a1.336,1.336,0,0,1,1.332,1.334V5.291a1.335,1.335,0,0,1-1.334,1.334H12.514c-.69,0-.865.138-.9.181-.062.07-.136.269-.136.818V9.308h3.13a1.356,1.356,0,0,1,.66.168,1.339,1.339,0,0,1,.686,1.167l0,4.256a1.335,1.335,0,0,1-1.334,1.334h-3.14v9.933A1.336,1.336,0,0,1,10.141,27.5ZM6.016,25.887H9.863V15.511a.892.892,0,0,1,.891-.891h3.584v-3.7H10.753a.892.892,0,0,1-.89-.891V7.624A2.746,2.746,0,0,1,10.4,5.74a2.732,2.732,0,0,1,2.111-.726H14.5v-3.4l-3.079-.005c-3.331,0-5.4,2.132-5.4,5.565V10.03a.892.892,0,0,1-.89.891H2.112v3.7H5.125a.892.892,0,0,1,.89.891Zm8.758-24.27h0Zm0,0" transform="translate(-0.5 0)"/></svg>