<svg xmlns="http://www.w3.org/2000/svg" width="360" height="340" viewBox="0 0 360 340"><defs><style>.a{fill:#00a7a7;}.b,.c{fill:#fff;}.b{font-size:25px;font-family:RobotoCondensed-Bold, Roboto;font-weight:700;}</style></defs><rect class="a" width="360" height="340"/><g transform="translate(2 60.156)"><text class="b" transform="translate(0 174.435)"><tspan x="85.898" y="26">PIĘKNE OPRAWKI:</tspan><tspan x="118.808" y="53">TWÓJ STYL</tspan></text><g transform="translate(78.779)"><path class="c" d="M184.155,65.853a3.15,3.15,0,0,0-.332-.485L131.19,13.846a15.546,15.546,0,0,0-21.629,0,14.9,14.9,0,0,0,0,21.373l5.092,4.986a3.326,3.326,0,0,0,4.654-4.753l-5.092-4.986a8.25,8.25,0,0,1,0-11.867,8.852,8.852,0,0,1,12.325,0L173.345,64.42H131.859a23.5,23.5,0,0,0-21.131,13.3H92.712a23.5,23.5,0,0,0-21.131-13.3H30.094L76.9,18.6a8.852,8.852,0,0,1,12.325,0,8.25,8.25,0,0,1,0,11.867l-5.092,4.986a3.326,3.326,0,1,0,4.654,4.753l5.092-4.986a14.9,14.9,0,0,0,0-21.373,15.546,15.546,0,0,0-21.629,0L19.617,65.368a3.151,3.151,0,0,0-.332.485A25.694,25.694,0,0,0,2,90.092v9.387a38.113,38.113,0,0,0,38.073,38.07h5.362A49.714,49.714,0,0,0,94.1,97.66h15.244a49.714,49.714,0,0,0,48.663,39.888h5.362a38.113,38.113,0,0,0,38.073-38.07V90.092a25.7,25.7,0,0,0-17.285-24.239ZM45.435,130.9H40.073A31.458,31.458,0,0,1,8.648,99.479V90.092a19.043,19.043,0,0,1,19.02-19.023H71.581A16.859,16.859,0,0,1,88.424,87.908,43.039,43.039,0,0,1,45.435,130.9ZM94.916,91.012c.063-1.03.156-2.054.156-3.1a23.444,23.444,0,0,0-.3-3.543h13.891a23.444,23.444,0,0,0-.3,3.543c0,1.047.093,2.071.156,3.1Zm99.876,8.466A31.458,31.458,0,0,1,163.367,130.9h-5.362a43.039,43.039,0,0,1-42.989-42.993,16.859,16.859,0,0,1,16.843-16.839h43.913a19.043,19.043,0,0,1,19.02,19.023Z" transform="translate(-2 -9.468)"/><path class="c" d="M30.268,31h-13.6A9.679,9.679,0,0,0,7,40.666V50.944a3.324,3.324,0,0,0,6.648,0V40.666a3.022,3.022,0,0,1,3.018-3.018h13.6a3.324,3.324,0,1,0,0-6.648Z" transform="translate(9.62 39.243)"/><path class="c" d="M65.27,36.974l-13.3,13.3a3.324,3.324,0,1,0,4.7,4.7l13.3-13.3a3.324,3.324,0,1,0-4.7-4.7Z" transform="translate(111.876 50.863)"/><path class="c" d="M78.266,31.973a3.324,3.324,0,0,0-4.7,0L46.974,58.565a3.324,3.324,0,1,0,4.7,4.7L78.266,36.674A3.324,3.324,0,0,0,78.266,31.973Z" transform="translate(100.256 39.244)"/></g></g></svg>