<svg xmlns="http://www.w3.org/2000/svg" width="27.5" height="27.5" viewBox="0 0 27.5 27.5"><defs><style>.a{fill:#64707e;}</style></defs><path class="a" d="M20.055,0H7.443A7.452,7.452,0,0,0,0,7.444V20.056A7.452,7.452,0,0,0,7.443,27.5H20.055A7.452,7.452,0,0,0,27.5,20.056V7.444A7.452,7.452,0,0,0,20.055,0Zm5.832,20.056a5.838,5.838,0,0,1-5.832,5.832H7.443a5.838,5.838,0,0,1-5.832-5.832V7.444A5.838,5.838,0,0,1,7.443,1.612H20.055a5.838,5.838,0,0,1,5.832,5.832Zm0,0" transform="translate(0.001 0)"/><path class="a" d="M123.523,116a7.519,7.519,0,1,0,7.519,7.519A7.528,7.528,0,0,0,123.523,116Zm0,13.426a5.907,5.907,0,1,1,5.907-5.907A5.914,5.914,0,0,1,123.523,129.43Zm0,0" transform="translate(-109.773 -109.773)"/><path class="a" d="M360.2,66.285a2.222,2.222,0,1,0,2.222,2.222A2.224,2.224,0,0,0,360.2,66.285Zm0,2.832a.61.61,0,1,1,.61-.61A.61.61,0,0,1,360.2,69.117Zm0,0" transform="translate(-338.75 -62.725)"/></svg>