<svg xmlns="http://www.w3.org/2000/svg" width="360" height="340" viewBox="0 0 360 340"><defs><style>.a{fill:#a100a7;}.b,.c{fill:#fff;}.b{font-size:25px;font-family:RobotoCondensed-Bold, Roboto;font-weight:700;}</style></defs><rect class="a" width="360" height="340"/><g transform="translate(2 24.654)"><text class="b" transform="translate(0 228.346)"><tspan x="72.391" y="26">PRZEDE WSZYSTKIM</tspan><tspan x="114.481" y="53">INNOWACJA</tspan></text><g transform="translate(98.723)"><path class="c" d="M235.327,19.944a3.324,3.324,0,0,0,3.324-3.324V3.324a3.324,3.324,0,1,0-6.648,0v13.3A3.324,3.324,0,0,0,235.327,19.944Z" transform="translate(-155.552)"/><path class="c" d="M140.432,29.614l6.648,11.511a3.324,3.324,0,1,0,5.779-3.286l-.022-.038-6.648-11.511a3.324,3.324,0,0,0-5.779,3.286Z" transform="translate(-101.761 -14.383)"/><path class="c" d="M74.255,98.164l.038.022L85.8,104.834A3.324,3.324,0,0,0,89.166,99.1l-.038-.022L77.617,92.429a3.324,3.324,0,0,0-3.362,5.735Z" transform="translate(-62.387 -53.758)"/><path class="c" d="M67.947,187.324A3.324,3.324,0,0,0,64.623,184h-13.3a3.324,3.324,0,0,0,0,6.648h13.3A3.324,3.324,0,0,0,67.947,187.324Z" transform="translate(-48.003 -107.549)"/><path class="c" d="M85.842,260.407l-.039.022-11.511,6.648a3.324,3.324,0,1,0,3.285,5.78l.039-.022,11.511-6.648a3.324,3.324,0,1,0-3.285-5.78Z" transform="translate(-62.386 -151.955)"/><path class="c" d="M380.15,267.1l-.039-.022L368.6,260.429a3.324,3.324,0,0,0-3.363,5.735l.039.022,11.511,6.648a3.324,3.324,0,1,0,3.363-5.735Z" transform="translate(-232.468 -151.955)"/><path class="c" d="M400.623,184h-13.3a3.324,3.324,0,0,0,0,6.648h13.3a3.324,3.324,0,1,0,0-6.648Z" transform="translate(-244.397 -107.549)"/><path class="c" d="M366.974,105.279a3.325,3.325,0,0,0,1.662-.445l11.511-6.648a3.324,3.324,0,1,0-3.286-5.779l-.038.022-11.511,6.648a3.324,3.324,0,0,0,1.662,6.2Z" transform="translate(-232.5 -53.758)"/><path class="c" d="M309.658,42.342l0,0a3.324,3.324,0,0,0,4.54-1.219h0l6.648-11.511a3.324,3.324,0,1,0-5.735-3.363l-.022.039L308.445,37.8A3.325,3.325,0,0,0,309.658,42.342Z" transform="translate(-199.971 -14.383)"/><path class="c" d="M204.567,226.479a3.324,3.324,0,0,0,3.324-3.324V186.592h6.648a13.3,13.3,0,1,0-13.3-13.3v6.648h-6.648V173.3a13.3,13.3,0,1,0-13.3,13.3h6.648v36.564a3.324,3.324,0,0,0,6.648,0V186.592h6.648v36.564A3.324,3.324,0,0,0,204.567,226.479Zm3.324-53.183a6.648,6.648,0,1,1,6.648,6.648h-6.648Zm-19.944,6.648H181.3a6.648,6.648,0,1,1,6.648-6.648Z" transform="translate(-118.144 -93.521)"/><path class="c" d="M167.812,64.064A53.183,53.183,0,0,0,131.518,158.3a9.906,9.906,0,0,1,3.8,7.6v7.795a9.972,9.972,0,0,0,6.648,9.36v3.936a9.909,9.909,0,0,0,2.593,6.648,9.819,9.819,0,0,0,0,13.3,9.929,9.929,0,0,0,7.379,16.62,3.241,3.241,0,0,0,2.732-5.109,3.524,3.524,0,0,0-.372-.575,3.435,3.435,0,0,0-.924-.6c-.1-.05-.193-.09-.292-.13a3.526,3.526,0,0,0-1.047-.209c-.033,0-.063-.02-.1-.02a3.324,3.324,0,0,1,0-6.648h13.3a3.324,3.324,0,1,0,0-6.648h-13.3a3.324,3.324,0,0,1,0-6.648h13.3a3.324,3.324,0,1,0,0-6.648h-13.3a3.324,3.324,0,0,1-3.324-3.324v-3.324h16.62a3.324,3.324,0,1,0,0-6.648H145.285a3.324,3.324,0,0,1-3.324-3.324V165.9a16.524,16.524,0,0,0-6.232-12.747A46.535,46.535,0,0,1,167.5,70.715,47.071,47.071,0,0,1,211.765,116.9,46.263,46.263,0,0,1,194.5,153.343a16.477,16.477,0,0,0-6,12.94v7.409a3.324,3.324,0,0,1-3.324,3.324H175.2a3.324,3.324,0,0,0,0,6.648h6.648v3.324a3.324,3.324,0,0,1-3.324,3.324H175.2a3.324,3.324,0,1,0,0,6.648h3.324a3.324,3.324,0,1,1,0,6.648H175.2a3.324,3.324,0,1,0,0,6.648h3.324a3.324,3.324,0,0,1,0,6.648h-16.62a3.324,3.324,0,1,0,0,6.648h12.727a9.972,9.972,0,0,1-16.856,3.3,3.324,3.324,0,0,0-4.966,4.421,16.583,16.583,0,0,0,28.756-8.247,9.875,9.875,0,0,0,4.338-16.095,9.819,9.819,0,0,0,0-13.3,9.909,9.909,0,0,0,2.593-6.648v-3.936a9.972,9.972,0,0,0,6.648-9.36v-7.409a9.992,9.992,0,0,1,3.527-7.768,52.868,52.868,0,0,0,19.741-41.663A53.8,53.8,0,0,0,167.812,64.064Z" transform="translate(-85.454 -37.409)"/></g></g></svg>