<svg xmlns="http://www.w3.org/2000/svg" width="33.527" height="33.527" viewBox="0 0 33.527 33.527"><defs><style>.a{fill:#fff;}</style></defs><path class="a" d="M24.451,0H9.075A9.086,9.086,0,0,0,0,9.076V24.452a9.086,9.086,0,0,0,9.076,9.075H24.451a9.086,9.086,0,0,0,9.075-9.075V9.076A9.086,9.086,0,0,0,24.451,0Zm7.11,24.452a7.118,7.118,0,0,1-7.11,7.11H9.075a7.118,7.118,0,0,1-7.11-7.11V9.076a7.118,7.118,0,0,1,7.11-7.11H24.451a7.118,7.118,0,0,1,7.11,7.11Zm0,0" transform="translate(0.001 0)"/><path class="a" d="M125.171,116a9.167,9.167,0,1,0,9.167,9.167A9.178,9.178,0,0,0,125.171,116Zm0,16.369a7.2,7.2,0,1,1,7.2-7.2A7.21,7.21,0,0,1,125.171,132.373Zm0,0" transform="translate(-108.408 -108.408)"/><path class="a" d="M360.686,66.285a2.709,2.709,0,1,0,2.709,2.709A2.712,2.712,0,0,0,360.686,66.285Zm0,3.452a.743.743,0,1,1,.744-.743A.744.744,0,0,1,360.686,69.737Zm0,0" transform="translate(-334.535 -61.945)"/></svg>