<svg xmlns="http://www.w3.org/2000/svg" width="360" height="340" viewBox="0 0 360 340"><defs><style>.a{fill:#247dcc;}.b,.c{fill:#fff;}.b{font-size:25px;font-family:RobotoCondensed-Bold, Roboto;font-weight:700;}</style></defs><rect class="a" width="360" height="340"/><g transform="translate(2 35.434)"><text class="b" transform="translate(0 207.382)"><tspan x="54.782" y="26">DOSKONAŁE SOCZEWKI:</tspan><tspan x="92.215" y="53">TWOJA WYGODA</tspan></text><path class="c" d="M70.268,138.62a3.324,3.324,0,0,1-4.2,2.118,106.2,106.2,0,0,1-42.241-26.046L6.3,97.159A21.56,21.56,0,0,1,6.3,66.7L23.829,49.172a107.258,107.258,0,0,1,151.771,0L193.132,66.7a21.56,21.56,0,0,1,0,30.454,3.324,3.324,0,0,1-4.7-4.7,14.9,14.9,0,0,0,0-21.052L170.9,53.874a100.613,100.613,0,0,0-142.368,0L11,71.406a14.9,14.9,0,0,0,0,21.052L28.531,109.99A99.61,99.61,0,0,0,68.15,134.423,3.324,3.324,0,0,1,70.268,138.62ZM99.715,63.234A18.751,18.751,0,0,1,118.033,78.16a3.324,3.324,0,0,0,6.513-1.333,25.349,25.349,0,1,0-39.006,26.12,3.324,3.324,0,1,0,3.722-5.509A18.7,18.7,0,0,1,99.715,63.234Zm76.2,34.29a3.324,3.324,0,0,0-3.963,5.338,51.529,51.529,0,1,1-30.682-10.127c2.253,0,2.427.147,3.226-.093a3.336,3.336,0,0,0,2.324-2.623,47.788,47.788,0,1,0-74.986,30.722,3.324,3.324,0,0,0,3.883-5.4,41.137,41.137,0,1,1,64.92-29.251,58.157,58.157,0,1,0,35.276,11.429ZM119.9,128.084l-5.4-3.116a3.324,3.324,0,1,0-3.324,5.757c5.863,3.385,5.9,3.562,7.056,3.562a3.328,3.328,0,0,0,1.665-6.2Zm51.459,29.71-5.4-3.116a3.324,3.324,0,1,0-3.324,5.757c5.863,3.385,5.9,3.562,7.056,3.562A3.328,3.328,0,0,0,171.357,157.794Zm-54.783-3.116-5.4,3.116a3.328,3.328,0,0,0,1.665,6.2c1.159,0,1.229-.2,7.056-3.562a3.324,3.324,0,0,0-3.324-5.758Zm56-28.493a3.323,3.323,0,0,0-4.541-1.217l-5.4,3.116a3.324,3.324,0,1,0,3.324,5.757l5.4-3.116A3.324,3.324,0,0,0,172.574,126.185Zm-27.983-14.751a3.324,3.324,0,1,0-6.648,0v6.233a3.324,3.324,0,1,0,6.648,0Zm-3.324,56.1a3.324,3.324,0,0,0-3.324,3.324v6.233a3.324,3.324,0,0,0,6.648,0v-6.233A3.324,3.324,0,0,0,141.267,167.529Z" transform="translate(78.778 -17.715)"/></g></svg>