<svg xmlns="http://www.w3.org/2000/svg" xmlns:xlink="http://www.w3.org/1999/xlink" width="64.713" height="23.476" viewBox="0 0 64.713 23.476"><defs><style>.a{fill:none;}.b{clip-path:url(#a);}.c{fill:#0058a7;}.d{fill:#161615;}</style><clipPath id="a"><rect class="a" width="64.713" height="23.476"/></clipPath></defs><g class="b" transform="translate(0 0)"><path class="c" d="M197.74,43.335a1.972,1.972,0,1,1-1.972-1.972,1.971,1.971,0,0,1,1.972,1.972" transform="translate(-133.027 -28.393)"/><path class="d" d="M35.257,70.025a.43.43,0,0,1,.346.42.407.407,0,0,1-.231.368,1.637,1.637,0,0,1-1.161.056,1.05,1.05,0,0,1-.388-.266l.188-.188a1.033,1.033,0,0,0,.721.28q.572,0,.572-.286,0-.255-.678-.256h-.134v-.228h.26q.476,0,.477-.253,0-.222-.464-.222a1.18,1.18,0,0,0-.653.193l-.163-.175a1.407,1.407,0,0,1,.813-.272,1.041,1.041,0,0,1,.558.126.386.386,0,0,1-.061.7" transform="translate(-23.217 -47.497)"/><path class="d" d="M42.986,70.72a.562.562,0,0,0,.582-.586.584.584,0,0,0-.176-.442.636.636,0,0,0-.46-.168h-.82v1.2Zm-.078-1.451a1.01,1.01,0,0,1,.706.237.816.816,0,0,1,.26.635.776.776,0,0,1-.276.608.928.928,0,0,1-.636.226H41.83V69.269Z" transform="translate(-28.713 -47.548)"/><path class="d" d="M57.742,69.524h-.815v1.451h-.282V69.524h-.815V69.27h1.913Z" transform="translate(-38.323 -47.549)"/><path class="d" d="M64.46,70.339l-.435-.826-.44.826Zm.643.636h-.309l-.2-.382H63.449l-.2.382h-.309l.9-1.705H64.2Z" transform="translate(-43.206 -47.549)"/><rect class="d" width="0.283" height="1.705" transform="translate(22.453 21.722)"/><path class="d" d="M75.075,69.27v1.7h1.6v-.254H75.357V69.27Z" transform="translate(-51.533 -47.549)"/><path class="d" d="M83.6,70a.576.576,0,0,0-.255-.485,1.007,1.007,0,0,0-1.124.023.6.6,0,0,0,0,.93.9.9,0,0,0,.584.178.887.887,0,0,0,.581-.179A.575.575,0,0,0,83.6,70m.294,0a.81.81,0,0,1-.344.678,1.354,1.354,0,0,1-1.5,0,.831.831,0,0,1,0-1.349A1.209,1.209,0,0,1,82.8,69.1a1.192,1.192,0,0,1,.747.231.812.812,0,0,1,.346.674" transform="translate(-56.08 -47.43)"/><path class="d" d="M92.27,70.072q.328,0,.327-.264,0-.282-.353-.282H91.25v.546Zm.631.9h-.329l-.462-.65H91.25v.65h-.283V69.271h1.345a.591.591,0,0,1,.421.144.516.516,0,0,1,.153.392.488.488,0,0,1-.124.349.544.544,0,0,1-.319.156Z" transform="translate(-62.442 -47.549)"/><path class="d" d="M101.076,70.976H99.291v-1.7h1.719v.254H99.573v.438h1v.254h-1v.5h1.5Z" transform="translate(-68.156 -47.549)"/><path class="d" d="M108.252,70.72a.566.566,0,0,0,.418-.164.573.573,0,0,0,.164-.422.584.584,0,0,0-.176-.442.637.637,0,0,0-.461-.168h-.82v1.2Zm-.078-1.451a1.01,1.01,0,0,1,.706.237.817.817,0,0,1,.26.635.776.776,0,0,1-.276.608.928.928,0,0,1-.636.226H107.1V69.269Z" transform="translate(-73.513 -47.548)"/><path class="d" d="M123.64,70.976h-1.785v-1.7h1.719v.254h-1.437v.438h1v.254h-1v.5h1.5Z" transform="translate(-83.644 -47.549)"/><path class="d" d="M130.935,69.27,130,70.3v.673h-.283V70.3l-.933-1.032h.352l.723.8.72-.8Z" transform="translate(-88.403 -47.549)"/><path class="d" d="M139.12,70.976h-1.785v-1.7h1.72v.254h-1.437v.438h1v.254h-1v.5h1.5Z" transform="translate(-94.27 -47.549)"/><path class="d" d="M147.08,69.27l-.558,1.7h-.366l-.425-1.424-.425,1.424h-.362l-.563-1.7h.315l.429,1.428.426-1.428h.358l.427,1.43.429-1.43Z" transform="translate(-99.107 -47.549)"/><path class="d" d="M156.584,70.976H154.8v-1.7h1.72v.254h-1.437v.438h1v.254h-1v.5h1.5Z" transform="translate(-106.258 -47.549)"/><path class="d" d="M163.325,70.339l-.435-.826-.44.826Zm.643.636h-.309l-.2-.382h-1.149l-.2.382h-.309l.9-1.705h.356Z" transform="translate(-111.069 -47.549)"/><path class="d" d="M171.77,70.072q.328,0,.328-.264,0-.282-.353-.282h-.994v.546Zm.632.9h-.329l-.461-.65h-.861v.65h-.282V69.271h1.345a.591.591,0,0,1,.421.144.515.515,0,0,1,.153.392.489.489,0,0,1-.125.349.543.543,0,0,1-.318.156Z" transform="translate(-117.014 -47.549)"/><path class="d" d="M25.577.232h2.066L21.614,10.3v6.758h-1.8V10.3Z" transform="translate(-13.602 -0.159)"/><rect class="d" width="1.775" height="12.081" transform="translate(33.908 4.813)"/><path class="d" d="M5.465,9.082,0,.046H2.066L6.413,7.5Z" transform="translate(0 -0.032)"/><rect class="d" width="1.775" height="12.081" transform="translate(21.558 4.59)"/><path class="d" d="M50.035,25.956a4.779,4.779,0,0,1-.889.507,5.629,5.629,0,0,1-2.261.474,3.343,3.343,0,0,1-3.622-3.622V14.637h1.8V23.1a2.232,2.232,0,0,0,.583,1.75,2.351,2.351,0,0,0,1.6.51,4,4,0,0,0,1.52-.292,4.341,4.341,0,0,0,1.252-.765Z" transform="translate(-29.697 -10.047)"/><path class="d" d="M78.8,15.665a4.778,4.778,0,0,1,.889-.507,5.629,5.629,0,0,1,2.261-.474,3.343,3.343,0,0,1,3.622,3.622v8.679h-1.8v-8.46a2.231,2.231,0,0,0-.583-1.75,2.352,2.352,0,0,0-1.6-.51,3.993,3.993,0,0,0-1.519.292,4.328,4.328,0,0,0-1.252.765Z" transform="translate(-54.092 -10.079)"/><rect class="d" width="1.799" height="16.919" transform="translate(38.276)"/><path class="d" d="M135.161,15.427h2.188l-4.424,4.449,4.521,7.633h-2.091l-4.483-7.774Z" transform="translate(-89.834 -10.589)"/><rect class="d" width="1.775" height="12.082" transform="translate(56.924 4.634)"/><path class="d" d="M162.818,26.1a4.779,4.779,0,0,1-.889.507,5.629,5.629,0,0,1-2.261.474,3.343,3.343,0,0,1-3.622-3.622V14.777h1.8v8.46a2.231,2.231,0,0,0,.583,1.75,2.351,2.351,0,0,0,1.6.51,4,4,0,0,0,1.52-.292,4.342,4.342,0,0,0,1.252-.766Z" transform="translate(-107.114 -10.143)"/></g></svg>