<svg xmlns="http://www.w3.org/2000/svg" xmlns:xlink="http://www.w3.org/1999/xlink" width="177.223" height="64.292" viewBox="0 0 177.223 64.292"><defs><style>.a{fill:none;}.b{clip-path:url(#a);}.c{fill:#0058a7;}.d{fill:#161615;}</style><clipPath id="a"><rect class="a" width="177.223" height="64.292"/></clipPath></defs><g class="b" transform="translate(0 0)"><path class="c" d="M204.6,46.763a5.4,5.4,0,1,1-5.4-5.4,5.4,5.4,0,0,1,5.4,5.4" transform="translate(-27.373 -5.842)"/><path class="d" d="M37.75,71.469a1.176,1.176,0,0,1,.948,1.15,1.115,1.115,0,0,1-.632,1.007,4.482,4.482,0,0,1-3.181.155,2.874,2.874,0,0,1-1.062-.728l.514-.516a2.829,2.829,0,0,0,1.974.768q1.568,0,1.567-.783,0-.7-1.857-.7h-.367V71.2h.712q1.3,0,1.305-.694,0-.609-1.272-.609a3.231,3.231,0,0,0-1.79.528l-.447-.479a3.853,3.853,0,0,1,2.226-.746,2.85,2.85,0,0,1,1.529.346,1.057,1.057,0,0,1-.167,1.928" transform="translate(-4.777 -9.773)"/><path class="d" d="M45,73.243a1.539,1.539,0,0,0,1.594-1.606,1.6,1.6,0,0,0-.482-1.211,1.742,1.742,0,0,0-1.261-.46H42.6v3.277Zm-.213-3.974a2.766,2.766,0,0,1,1.932.649,2.233,2.233,0,0,1,.713,1.738,2.125,2.125,0,0,1-.755,1.664,2.543,2.543,0,0,1-1.742.618h-3.1v-4.67Z" transform="translate(-5.908 -9.784)"/><path class="d" d="M61.068,69.966H58.835V73.94h-.773V69.966H55.829v-.7h5.238Z" transform="translate(-7.886 -9.784)"/><path class="d" d="M67.1,72.2l-1.19-2.262L64.7,72.2Zm1.761,1.742h-.847l-.538-1.045H64.328L63.79,73.94h-.847l2.47-4.67h.976Z" transform="translate(-8.89 -9.784)"/><rect class="d" width="0.774" height="4.669" transform="translate(61.489 59.487)"/><path class="d" d="M75.075,69.27v4.669h4.379v-.7H75.848V69.27Z" transform="translate(-10.604 -9.784)"/><path class="d" d="M86.892,71.574a1.577,1.577,0,0,0-.7-1.329,2.758,2.758,0,0,0-3.077.062,1.642,1.642,0,0,0-.013,2.548,2.462,2.462,0,0,0,1.6.488,2.428,2.428,0,0,0,1.59-.491,1.575,1.575,0,0,0,.6-1.277m.806,0a2.217,2.217,0,0,1-.941,1.857,3.708,3.708,0,0,1-4.116-.007,2.275,2.275,0,0,1,.013-3.7A3.31,3.31,0,0,1,84.7,69.1a3.264,3.264,0,0,1,2.045.632,2.224,2.224,0,0,1,.948,1.845" transform="translate(-11.54 -9.759)"/><path class="d" d="M94.534,71.463q.9,0,.9-.723,0-.773-.968-.773H91.742v1.5Zm1.729,2.478h-.9L94.1,72.161H91.742v1.78h-.775v-4.67h3.684a1.618,1.618,0,0,1,1.154.4,1.414,1.414,0,0,1,.419,1.074,1.337,1.337,0,0,1-.341.956,1.488,1.488,0,0,1-.872.426Z" transform="translate(-12.849 -9.784)"/><path class="d" d="M104.18,73.94H99.291V69.271H104v.7h-3.936v1.2H102.8v.7h-2.737v1.381h4.116Z" transform="translate(-14.024 -9.784)"/><path class="d" d="M110.262,73.243a1.551,1.551,0,0,0,1.145-.45,1.568,1.568,0,0,0,.449-1.156,1.6,1.6,0,0,0-.481-1.211,1.746,1.746,0,0,0-1.261-.46h-2.245v3.277Zm-.213-3.974a2.765,2.765,0,0,1,1.932.649,2.237,2.237,0,0,1,.713,1.738,2.125,2.125,0,0,1-.755,1.664,2.543,2.543,0,0,1-1.742.618h-3.1v-4.67Z" transform="translate(-15.127 -9.784)"/><path class="d" d="M126.743,73.94h-4.889V69.271h4.709v.7h-3.936v1.2h2.737v.7h-2.737v1.381h4.116Z" transform="translate(-17.211 -9.784)"/><path class="d" d="M134.67,69.27,132.116,72.1v1.844h-.774V72.1l-2.555-2.825h.965l1.98,2.18,1.972-2.18Z" transform="translate(-18.191 -9.784)"/><path class="d" d="M142.225,73.94h-4.89V69.271h4.709v.7h-3.936v1.2h2.736v.7h-2.736v1.381h4.116Z" transform="translate(-19.398 -9.784)"/><path class="d" d="M151.773,69.27l-1.529,4.669h-1l-1.164-3.9-1.164,3.9h-.99l-1.542-4.669h.862l1.176,3.91,1.168-3.91h.981l1.17,3.917,1.174-3.917Z" transform="translate(-20.393 -9.784)"/><path class="d" d="M159.689,73.94H154.8V69.271h4.709v.7h-3.936v1.2h2.736v.7h-2.736v1.381h4.116Z" transform="translate(-21.865 -9.784)"/><path class="d" d="M165.962,72.2l-1.19-2.262-1.2,2.262Zm1.761,1.742h-.846l-.538-1.045h-3.146l-.538,1.045h-.846l2.47-4.67h.975Z" transform="translate(-22.855 -9.784)"/><path class="d" d="M174.034,71.463q.9,0,.9-.723,0-.773-.968-.773h-2.722v1.5Zm1.73,2.478h-.9l-1.263-1.78h-2.358v1.78h-.773v-4.67h3.683a1.618,1.618,0,0,1,1.154.4,1.411,1.411,0,0,1,.42,1.074,1.339,1.339,0,0,1-.343.956,1.486,1.486,0,0,1-.871.426Z" transform="translate(-24.078 -9.784)"/><path class="d" d="M35.593.232h5.659L24.742,27.794V46.3H19.815V27.794Z" transform="translate(-2.799 -0.033)"/><rect class="d" width="4.86" height="33.086" transform="translate(92.86 13.182)"/><path class="d" d="M14.968,24.79,0,.046H5.658l11.9,20.416Z" transform="translate(0 -0.006)"/><rect class="d" width="4.86" height="33.086" transform="translate(59.039 12.571)"/><path class="d" d="M61.808,45.636a13.087,13.087,0,0,1-2.434,1.389,15.416,15.416,0,0,1-6.192,1.3A9.156,9.156,0,0,1,43.263,38.4V14.637h4.928V37.805q0,3.4,1.6,4.794A6.438,6.438,0,0,0,54.18,44a10.943,10.943,0,0,0,4.162-.8,11.888,11.888,0,0,0,3.429-2.1Z" transform="translate(-6.111 -2.067)"/><path class="d" d="M78.8,17.372a13.086,13.086,0,0,1,2.434-1.389,15.415,15.415,0,0,1,6.192-1.3,9.773,9.773,0,0,1,7.289,2.663,9.87,9.87,0,0,1,2.63,7.256V48.37H92.42V25.2q0-3.4-1.6-4.793a6.442,6.442,0,0,0-4.393-1.4,10.935,10.935,0,0,0-4.161.8,11.854,11.854,0,0,0-3.429,2.1Z" transform="translate(-11.13 -2.074)"/><rect class="d" width="4.926" height="46.335" transform="translate(104.823)"/><path class="d" d="M142.618,15.427h5.992L136.494,27.61l12.382,20.9H143.15L130.871,27.224Z" transform="translate(-18.485 -2.179)"/><rect class="d" width="4.86" height="33.087" transform="translate(155.893 12.69)"/><path class="d" d="M174.591,45.775a13.087,13.087,0,0,1-2.434,1.389,15.415,15.415,0,0,1-6.192,1.3,9.155,9.155,0,0,1-9.919-9.919V14.777h4.928V37.944q0,3.4,1.6,4.794a6.438,6.438,0,0,0,4.393,1.4,10.943,10.943,0,0,0,4.162-.8,11.893,11.893,0,0,0,3.429-2.1Z" transform="translate(-22.041 -2.087)"/></g></svg>