<svg xmlns="http://www.w3.org/2000/svg" width="123.131" height="78.882" viewBox="0 0 123.131 78.882"><defs><style>.a{fill:#470000;stroke:#000;stroke-miterlimit:22.926;stroke-width:0.216px;}.a,.c{fill-rule:evenodd;}.b,.c{fill:#fff;}</style></defs><g transform="translate(0.108 0.108)"><path class="a" d="M83.048,127.417c33.936,0,61.458,17.614,61.458,39.333s-27.521,39.333-61.458,39.333S21.59,188.469,21.59,166.75s27.521-39.333,61.458-39.333Zm0,1.475c-33.122,0-59.983,16.953-59.983,37.858s26.861,37.858,59.983,37.858,59.983-16.953,59.983-37.858-26.861-37.858-59.983-37.858Zm0,1.475c-32.307,0-58.508,16.293-58.508,36.383s26.2,36.383,58.508,36.383,58.508-16.293,58.508-36.383S115.355,130.367,83.048,130.367Z" transform="translate(-21.59 -127.417)"/><path class="b" d="M486.076,1078.144h-2.614v-12.832h5.354l.231,1.287h-2.972v1.184h3.109l-.3,1.54a1.292,1.292,0,0,0-.331-.176,3.35,3.35,0,0,0-.554-.029h-1.92v9.026Zm6.46,0h-2.614v-12.832h2.614v12.832Zm8.033-2.538a4.672,4.672,0,0,1-.32,1.842,1.663,1.663,0,0,1-.646.744,1.434,1.434,0,0,1-.765.225q-1.014,0-1.687-1.6a14.95,14.95,0,0,1-.492-1.412,1.691,1.691,0,0,0-.168.019c-.083.006-.139.009-.168.009v2.708h-2.614v-12.832h3.162a4.532,4.532,0,0,1,1.492.205,3.122,3.122,0,0,1,1.664,1.675,6.067,6.067,0,0,1,.559,2.7,6.4,6.4,0,0,1-.509,2.66,5.14,5.14,0,0,1-2.2,2.285,2.847,2.847,0,0,0,.537.818,1.453,1.453,0,0,0,1.02.526,1.785,1.785,0,0,0,1.133-.574Zm-4.247-1.515a1.2,1.2,0,0,0,.95-.44,2.707,2.707,0,0,0,.45-1.412q.064-.582.065-2.012c0-.915-.02-1.55-.059-1.909a2.406,2.406,0,0,0-.494-1.345,1.022,1.022,0,0,0-.759-.347c-.033,0-.083,0-.152.01v7.454Zm12.873,4.053h-2.614v-10.313L504,1074.948l-1.916-3.5v6.693h-.748v-12.832h1.041l2.509,4.643,1.7-4.643H509.2v12.832Zm7.963,0h-2.9l-.487-1.813h-2.881l-.472,1.813h-.835l3.368-12.832h.722l3.483,12.832Zm-3.749-3.138-1.094-4.063-1.07,4.063Zm10.27-9.967a2.182,2.182,0,0,1,1.366.514,4.515,4.515,0,0,1,1.161,1.45,8.267,8.267,0,0,1,.748,2.163,12.562,12.562,0,0,1,.267,2.625,12.073,12.073,0,0,1-.3,2.763,7.6,7.6,0,0,1-.863,2.208,2.865,2.865,0,0,1-2.409,1.656,2.345,2.345,0,0,1-1.505-.574,4.684,4.684,0,0,1-1.213-1.643,10.685,10.685,0,0,1-.922-4.627,11.309,11.309,0,0,1,.3-2.628,7.733,7.733,0,0,1,.848-2.176,2.95,2.95,0,0,1,2.529-1.73Zm.742,6.45v-1.627a15.745,15.745,0,0,0-.141-2.776q-.186-.742-.663-.741-.519,0-.709.78a5.434,5.434,0,0,0-.093,1.052q0,.106-.011,1.6l.005,1.768v1.938q.006,1.637.017,1.964a6.326,6.326,0,0,0,.054.651,1.452,1.452,0,0,0,.363.854.476.476,0,0,0,.354.16c.322,0,.546-.211.672-.638a8.769,8.769,0,0,0,.141-1.938c0-.324,0-1.341.011-3.045Zm6.178,6.655h-2.614v-12.832h3.423a3.914,3.914,0,0,1,1.459.189,3.047,3.047,0,0,1,1.5,1.691,6.871,6.871,0,0,1,.478,2.689,7.009,7.009,0,0,1-.731,3.3,3.653,3.653,0,0,1-2.49,2.041,7.045,7.045,0,0,1-1.02.122v2.8Zm0-4.117a1.125,1.125,0,0,0,1.035-.668,3.206,3.206,0,0,0,.342-1.168,15.622,15.622,0,0,0,.065-1.691,14.069,14.069,0,0,0-.157-2.641c-.148-.626-.391-1.011-.726-1.149a1.216,1.216,0,0,0-.45-.074H530.6v7.39Zm9.183,4.117h-2.614V1066.6h-2.044v-1.287h6.7v1.287h-2.046v11.545Zm6.83,0H544v-7.014l-2-5.818h3.033l1.316,3.76,1.405-3.76h.9l-2.04,5.574v7.258Zm8.522-1.155a2.7,2.7,0,0,0-.27-1.017,1.039,1.039,0,0,0-.748-.565c.006.132.009.234.009.3q0,1.4-.992,1.4a1.4,1.4,0,0,1-.841-.282,1.994,1.994,0,0,1-.642-.786,4.922,4.922,0,0,1-.376-1.338,22.762,22.762,0,0,1-.191-3.459q0-1.223.043-1.874a6.257,6.257,0,0,1,.315-1.739q.489-1.285,1.363-1.287a.77.77,0,0,1,.591.244.941.941,0,0,1,.228.667,1.46,1.46,0,0,1-.255.754,1.216,1.216,0,0,0,1.048.77.6.6,0,0,0,.526-.282,1.762,1.762,0,0,0,.239-.988,2.371,2.371,0,0,0-.624-1.736,2.172,2.172,0,0,0-.859-.536,3.29,3.29,0,0,0-1.137-.2,3.586,3.586,0,0,0-3.027,1.758,8.731,8.731,0,0,0-1.248,5.019,12.6,12.6,0,0,0,.25,2.567,6.122,6.122,0,0,0,.993,2.435,3.607,3.607,0,0,0,3.047,1.6,2.62,2.62,0,0,0,2.561-1.428Zm5.61,1.155h-5.425l2.642-11.545h-2.5v-1.287h5.077v2.387l-2.111,9.11h2.313v1.335Zm7.039,0h-.933l-4.643-6.985v6.985h-.748v-12.832h.863l4.714,7.059v-7.059h.748v12.832Zm7.959,0h-2.9l-.487-1.813h-2.881l-.472,1.813h-.835l3.368-12.832h.722l3.483,12.832ZM572,1075.006l-1.094-4.063-1.07,4.063Z" transform="translate(-466.397 -1030.397)"/><path class="b" d="M1052.08,1978.611l.622.168a1.07,1.07,0,0,1,.314.127.662.662,0,0,1,.221.266,1.132,1.132,0,0,1,.1.389,2.053,2.053,0,0,1-.03.521,1.674,1.674,0,0,1-.128.441.9.9,0,0,1-.244.329.522.522,0,0,1-.268.106.847.847,0,0,1-.309-.036l-.641-.172.358-2.14Zm.28.454-.237,1.417.254.069a.742.742,0,0,0,.209.035.271.271,0,0,0,.152-.052.449.449,0,0,0,.124-.183,1.705,1.705,0,0,0,.1-.383,1.662,1.662,0,0,0,.029-.39.593.593,0,0,0-.062-.233.357.357,0,0,0-.141-.143,1.3,1.3,0,0,0-.276-.1l-.153-.041Zm2.582,2.517-.349-2.314-.361-.089-.989,1.985.363.089.214-.453.677.167.073.524.372.092Zm-.5-1-.462-.114.351-.74.111.854Zm.8,1.045-.106-2.245.351.078.051,1.537.516-1.41.408.091.089,1.571.47-1.447.345.077-.712,2.062-.364-.081-.114-1.686-.561,1.535-.372-.083Zm2.013.431.319.064.176-1.409.511,1.547.346.069.27-2.16-.32-.064-.18,1.442-.517-1.583-.335-.067-.27,2.16Zm1.7.333.27-2.16.344.069-.27,2.16-.344-.069Zm.681.117.21-2.17,1.269.2-.035.368-.924-.144-.047.481.859.134-.036.365-.859-.134-.057.591.956.149-.035.365-1.3-.2Zm2.382-1.852.346.046-.114,1.377a1.745,1.745,0,0,1-.072.41.556.556,0,0,1-.208.281.5.5,0,0,1-.358.068.491.491,0,0,1-.376-.232.9.9,0,0,1-.094-.547l.33,0a.747.747,0,0,0,.021.27.2.2,0,0,0,.161.14.166.166,0,0,0,.171-.062.8.8,0,0,0,.077-.342l.116-1.405Zm1.206,2.364.15-2.179.519.058.209,1.521.411-1.452.52.058-.15,2.179-.322-.035.119-1.716-.46,1.677-.334-.037-.222-1.753-.118,1.715-.322-.036Zm3.537.386-.377-.042-.116-.511-.687-.076-.176.479-.368-.041.82-2.1.367.041.537,2.255Zm-.579-.933-.181-.835-.288.783.469.052Zm.771.94.12-2.182.731.065a1.033,1.033,0,0,1,.4.094.458.458,0,0,1,.189.227.772.772,0,0,1,.056.35.668.668,0,0,1-.136.4.493.493,0,0,1-.352.171.941.941,0,0,1,.176.2,2.7,2.7,0,0,1,.178.372l.187.445-.415-.037-.225-.5a3.286,3.286,0,0,0-.165-.337.288.288,0,0,0-.1-.1.474.474,0,0,0-.174-.04l-.07-.006-.05.911-.347-.031Zm.417-1.228.257.022a1.076,1.076,0,0,0,.314,0,.19.19,0,0,0,.1-.084.336.336,0,0,0,.044-.16.317.317,0,0,0-.036-.182.214.214,0,0,0-.126-.1,2.5,2.5,0,0,0-.253-.03l-.271-.024-.031.554Zm1.323,1.347.09-2.185,1.277.085-.015.37-.929-.062-.02.484.865.057-.015.368-.865-.057-.025.594.962.064-.016.368-1.309-.087Zm1.611.088.06-2.186.348.016-.027.97.73-.939.468.021-.672.823.647,1.365-.45-.02-.445-1.047-.293.353-.018.66-.348-.016Zm3.057-2.085.348.008-.019,1.385a1.8,1.8,0,0,1-.043.417.59.59,0,0,1-.188.3.514.514,0,0,1-.352.108.467.467,0,0,1-.391-.19.879.879,0,0,1-.131-.534l.329-.041a.724.724,0,0,0,.04.267.184.184,0,0,0,.17.121.172.172,0,0,0,.166-.081.815.815,0,0,0,.053-.348l.019-1.412Zm2.243,2.238-.379-.008-.144-.5-.689-.015-.149.493-.369-.008.7-2.172.368.009.66,2.2Zm-.629-.879-.227-.817-.244.807.471.011Zm.818.867-.03-2.187.348-.008.014.971.69-.986.468-.011-.637.866.7,1.32-.45.01-.488-1.016-.278.372.009.661-.348.008Zm1.673-2.19.348-.015.033,1.183a3.089,3.089,0,0,0,.023.365.366.366,0,0,0,.112.211.313.313,0,0,0,.232.071.3.3,0,0,0,.221-.087.326.326,0,0,0,.085-.192,2.961,2.961,0,0,0,.005-.372l-.033-1.209.348-.016.031,1.148a3.65,3.65,0,0,1-.013.558.705.705,0,0,1-.1.279.57.57,0,0,1-.2.187.731.731,0,0,1-.33.081.773.773,0,0,1-.376-.056.554.554,0,0,1-.207-.179.676.676,0,0,1-.1-.238,3.362,3.362,0,0,1-.049-.553l-.032-1.167Zm1.743-.061.689-.03a1.523,1.523,0,0,1,.306.008.394.394,0,0,1,.182.082.525.525,0,0,1,.137.177.587.587,0,0,1,.06.253.621.621,0,0,1-.057.285.463.463,0,0,1-.172.2.45.45,0,0,1,.248.187.618.618,0,0,1,.094.326.813.813,0,0,1-.047.292.59.59,0,0,1-.143.231.446.446,0,0,1-.231.114c-.057.01-.2.022-.419.034l-.587.025-.06-2.186Zm.358.348.014.506.228-.01a2.378,2.378,0,0,0,.253-.019.213.213,0,0,0,.138-.084.272.272,0,0,0,.046-.173.282.282,0,0,0-.048-.163.183.183,0,0,0-.133-.071q-.052,0-.3.006l-.2.009Zm.024.869.016.584.322-.014a1.191,1.191,0,0,0,.238-.024.21.21,0,0,0,.124-.093.318.318,0,0,0,.044-.187.34.34,0,0,0-.043-.166.221.221,0,0,0-.111-.1.949.949,0,0,0-.31-.017l-.281.012Zm1.3-.2a1.742,1.742,0,0,1,.055-.566,1.114,1.114,0,0,1,.148-.31.723.723,0,0,1,.214-.211.781.781,0,0,1,.368-.111.709.709,0,0,1,.621.259,1.318,1.318,0,0,1,.263.817,1.37,1.37,0,0,1-.193.843.746.746,0,0,1-.594.339.713.713,0,0,1-.623-.257,1.3,1.3,0,0,1-.26-.8Zm.357-.038a.96.96,0,0,0,.159.553.394.394,0,0,0,.351.168.415.415,0,0,0,.333-.213,1.014,1.014,0,0,0,.11-.579.968.968,0,0,0-.153-.552.394.394,0,0,0-.353-.162.419.419,0,0,0-.339.21,1.006,1.006,0,0,0-.109.573Zm1.876.965-.531-2.146.355-.031.342,1.475.232-1.527.413-.037.386,1.5.18-1.548.349-.031-.3,2.219-.369.033-.432-1.6-.252,1.661-.376.033Zm2.019-.165-.151-2.178.347-.038.15,2.178-.347.039Zm1.7-1.016.345.1a1.071,1.071,0,0,1-.221.558.664.664,0,0,1-.445.224.648.648,0,0,1-.583-.234,1.3,1.3,0,0,1-.276-.786,1.454,1.454,0,0,1,.163-.87.729.729,0,0,1,.562-.365.61.61,0,0,1,.528.179.894.894,0,0,1,.2.382l-.337.142a.469.469,0,0,0-.146-.254.306.306,0,0,0-.242-.072.381.381,0,0,0-.3.208,1.051,1.051,0,0,0-.08.576,1.068,1.068,0,0,0,.158.575.335.335,0,0,0,.316.142.324.324,0,0,0,.23-.137.753.753,0,0,0,.119-.366Zm.547.755-.038-.395.763-1.548-.8.124-.036-.368,1.253-.195.033.341-.8,1.61.974-.151.035.366-1.391.216Zm2.116-1.389a1.757,1.757,0,0,1,.024-.569,1.168,1.168,0,0,1,.131-.323.757.757,0,0,1,.2-.229.8.8,0,0,1,.361-.143.687.687,0,0,1,.634.2,1.276,1.276,0,0,1,.307.792,1.393,1.393,0,0,1-.146.858.779.779,0,0,1-.574.391.691.691,0,0,1-.636-.2,1.258,1.258,0,0,1-.3-.779Zm.354-.07a.934.934,0,0,0,.189.538.382.382,0,0,0,.359.137.43.43,0,0,0,.321-.242,1.025,1.025,0,0,0,.078-.586.941.941,0,0,0-.183-.538.381.381,0,0,0-.36-.13.438.438,0,0,0-.327.24,1.02,1.02,0,0,0-.077.581Zm1.4-1.311.629-.126a.974.974,0,0,1,.329-.024.516.516,0,0,1,.281.148.94.94,0,0,1,.207.317,1.955,1.955,0,0,1,.119.5,1.818,1.818,0,0,1,.005.47,1.1,1.1,0,0,1-.135.417.655.655,0,0,1-.22.221.881.881,0,0,1-.3.107l-.647.13-.27-2.16Zm.39.3.178,1.43.257-.052a.764.764,0,0,0,.206-.063.335.335,0,0,0,.128-.117.543.543,0,0,0,.064-.227,1.807,1.807,0,0,0-.015-.4,1.6,1.6,0,0,0-.083-.378.49.49,0,0,0-.124-.189.285.285,0,0,0-.172-.069,1.234,1.234,0,0,0-.285.036l-.154.031Zm3.027,1.231-.326.073-.216-1.557a1.256,1.256,0,0,1-.377.407l-.052-.375a1.053,1.053,0,0,0,.249-.262.868.868,0,0,0,.157-.391l.264-.06.3,2.164Zm.413-.589.307-.121a.307.307,0,0,0,.088.165.151.151,0,0,0,.137.027.231.231,0,0,0,.153-.159,1.258,1.258,0,0,0,.016-.509.416.416,0,0,1-.278.256.4.4,0,0,1-.375-.111.777.777,0,0,1-.223-.473.906.906,0,0,1,.073-.565.541.541,0,0,1,.359-.3.458.458,0,0,1,.462.149,1.5,1.5,0,0,1,.293.79,1.689,1.689,0,0,1-.042.892.6.6,0,0,1-.409.371.4.4,0,0,1-.341-.055.662.662,0,0,1-.218-.362Zm.6-1.08a.53.53,0,0,0-.119-.291.188.188,0,0,0-.184-.069.2.2,0,0,0-.135.127.581.581,0,0,0-.014.31.529.529,0,0,0,.112.289.176.176,0,0,0,.176.058.213.213,0,0,0,.143-.132.517.517,0,0,0,.022-.291Zm.719.744.307-.121a.306.306,0,0,0,.088.165.15.15,0,0,0,.137.027.232.232,0,0,0,.153-.159,1.272,1.272,0,0,0,.016-.509.413.413,0,0,1-.278.256.393.393,0,0,1-.375-.11.778.778,0,0,1-.223-.473.912.912,0,0,1,.073-.564.54.54,0,0,1,.359-.3.456.456,0,0,1,.461.149,1.493,1.493,0,0,1,.293.79,1.684,1.684,0,0,1-.042.892.6.6,0,0,1-.408.371.4.4,0,0,1-.342-.055.661.661,0,0,1-.219-.362Zm.6-1.08a.525.525,0,0,0-.12-.291.187.187,0,0,0-.184-.069.2.2,0,0,0-.136.127.583.583,0,0,0-.014.31.53.53,0,0,0,.111.289.176.176,0,0,0,.177.058.215.215,0,0,0,.143-.132.519.519,0,0,0,.022-.292Zm1.613-.671-.306.128a.3.3,0,0,0-.09-.164.148.148,0,0,0-.136-.025.237.237,0,0,0-.154.164,1.27,1.27,0,0,0-.008.51.414.414,0,0,1,.27-.262.392.392,0,0,1,.38.1.765.765,0,0,1,.229.465.912.912,0,0,1-.063.568.546.546,0,0,1-.357.3.452.452,0,0,1-.462-.138,1.473,1.473,0,0,1-.3-.781,1.691,1.691,0,0,1,.029-.894.6.6,0,0,1,.4-.38.394.394,0,0,1,.341.051.645.645,0,0,1,.227.353Zm-.583,1.092a.518.518,0,0,0,.124.289.188.188,0,0,0,.184.064.207.207,0,0,0,.134-.129.571.571,0,0,0,.011-.308.532.532,0,0,0-.116-.289.177.177,0,0,0-.177-.054.221.221,0,0,0-.142.135A.511.511,0,0,0,1098.03,1980.2Z" transform="translate(-1013.661 -1910.216)"/><g transform="translate(47.157 54.909)"><path class="b" d="M1302.759,1616.85v0h0v0a4.631,4.631,0,0,0-2.766.853,2.425,2.425,0,0,0-1.072,1.9h0a2.424,2.424,0,0,0,1.072,1.9,4.631,4.631,0,0,0,2.766.854v0h0v0a4.631,4.631,0,0,0,2.766-.854,2.424,2.424,0,0,0,1.072-1.9h0a2.425,2.425,0,0,0-1.072-1.9,4.631,4.631,0,0,0-2.766-.853Zm11.9,0v0h0v0a4.63,4.63,0,0,0-2.766.853,2.425,2.425,0,0,0-1.072,1.9h0a2.424,2.424,0,0,0,1.072,1.9,4.63,4.63,0,0,0,2.766.854v0h0v0a4.631,4.631,0,0,0,2.766-.854,2.424,2.424,0,0,0,1.072-1.9h0a2.425,2.425,0,0,0-1.072-1.9,4.631,4.631,0,0,0-2.766-.853Zm-11.776-.978a5.587,5.587,0,0,1,3.231,1.048,3.612,3.612,0,0,1,1.346,1.862,2.138,2.138,0,0,1,2.509-.038,3.622,3.622,0,0,1,1.335-1.823,5.617,5.617,0,0,1,3.354-1.049v0h0v0a5.618,5.618,0,0,1,3.354,1.049,3.653,3.653,0,0,1,1.308,1.739l2.872-2.9a3.7,3.7,0,0,1,1.594-1,2.191,2.191,0,0,1,1.368.031,1.979,1.979,0,0,1,1.011.853,2.85,2.85,0,0,1,.377,1.437l-.685.011a2.173,2.173,0,0,0-.28-1.093,1.3,1.3,0,0,0-.662-.562,1.514,1.514,0,0,0-.943-.015,3.019,3.019,0,0,0-1.293.822l-3.206,3.237c0,.043,0,.085,0,.128h0a3.381,3.381,0,0,1-1.464,2.688,5.617,5.617,0,0,1-3.354,1.049v0h0v0a5.617,5.617,0,0,1-3.354-1.049,3.463,3.463,0,0,1-1.445-2.355,1.491,1.491,0,0,0-2.3-.02,3.455,3.455,0,0,1-1.447,2.376,5.617,5.617,0,0,1-3.354,1.049v0h0v0a5.618,5.618,0,0,1-3.354-1.049,3.381,3.381,0,0,1-1.464-2.688h0a3.381,3.381,0,0,1,1.464-2.688,5.3,5.3,0,0,1,2.128-.928l2.377-1.7a3.575,3.575,0,0,1,1.741-.7,2.183,2.183,0,0,1,1.332.281,2.006,2.006,0,0,1,.843,1.014,2.834,2.834,0,0,1,.119,1.513l-.678-.116a2.156,2.156,0,0,0-.08-1.15,1.329,1.329,0,0,0-.555-.672,1.5,1.5,0,0,0-.918-.187,2.9,2.9,0,0,0-1.4.58Z" transform="translate(-1297.94 -1613.574)"/><g transform="translate(5.143 3.14)"><path class="c" d="M1438.174,1698.567l.155,1.215.879.214-.879.214-.155,1.215-.155-1.215-.878-.214.878-.214Z" transform="translate(-1437.141 -1698.567)"/><path class="c" d="M1769.43,1704.877l.155,1.215.878.214-.878.214-.155,1.215-.155-1.215-.879-.214.879-.214Z" transform="translate(-1756.158 -1704.644)"/></g></g><g transform="translate(21.115 5.579)"><path class="b" d="M595.538,564.874c-.394-.657-.788-1.3-1.192-1.913s-.825-1.215-1.247-1.8l.061-.314.71-.466a4.709,4.709,0,0,1,1.642-.839,1.3,1.3,0,0,1,1.32.592,1.178,1.178,0,0,1,0,1.465c.592.2,1.224.381,1.885.565a7.453,7.453,0,0,0-.343,1.351c-.812-.365-1.612-.7-2.411-1.007l-.332.212c.357.519.746,1.039,1.178,1.566-.184.1-.355.209-.519.317s-.319.216-.464.328Zm.326-3.984a1.109,1.109,0,0,0-1.587-.323c.439.733.789,1.291,1.043,1.678l.136.208C596.089,561.957,596.218,561.428,595.865,560.89Z" transform="translate(-593.099 -549.141)"/><path class="b" d="M746.026,494.749l-.632-.357c.089-1.247.16-2.479.2-3.688l-.678-.388c.21-.418.4-.833.566-1.222,1.353.915,2.773,1.822,4.276,2.714a10.468,10.468,0,0,0-.573,1.286c-1.146-.8-2.131-1.454-2.951-1.988C746.117,492.273,746.051,493.486,746.026,494.749Zm1.879-2.147c-.142.355-.265.728-.382,1.12-.383-.124-.77-.235-1.147-.318.122-.461.221-.9.293-1.31A13.352,13.352,0,0,0,747.905,492.6Z" transform="translate(-739.305 -481.31)"/><path class="b" d="M855.231,419.516c-.306.1-.6.226-.9.353-.148.063-.3.128-.446.2l.637,1.579c.208-.354.395-.715.577-1.085a10.149,10.149,0,0,0,1.067.583,10.945,10.945,0,0,0-.53,1.07c-.353-.188-.717-.356-1.091-.515.341.8.726,1.572,1.142,2.328-.2.069-.394.147-.575.225s-.36.159-.527.247l-.274-.106c-.272-.716-.547-1.416-.837-2.093s-.6-1.341-.911-1.992l.114-.3c.435-.165.86-.331,1.288-.514s.854-.381,1.274-.582Z" transform="translate(-842.977 -413.717)"/><path class="b" d="M975.526,392.129l-.572-.446c.271-1.22.523-2.429.738-3.619l-.613-.483c.269-.383.52-.765.74-1.125,1.2,1.1,2.475,2.21,3.83,3.313a10.436,10.436,0,0,0-.756,1.188c-1.016-.958-1.894-1.752-2.626-2.4C975.981,389.693,975.737,390.883,975.526,392.129Zm2.175-1.847c-.193.331-.369.681-.543,1.052-.36-.179-.727-.346-1.087-.484.189-.437.351-.856.482-1.253A13.362,13.362,0,0,0,977.7,390.282Z" transform="translate(-960.846 -382.464)"/><path class="b" d="M1098.836,351.579c.177-.048.35-.111.523-.173.15.616.161.709.294,1.229l.552-.747.18.659-.565.715c.169.6.487,1.717.682,2.326l.216-.059c.492-.134.964-.289,1.413-.446l-.108.656c-.458.1-.917.225-1.365.348-.362.1-.728.2-1.087.317l-.248-.145c-.138-.574-.378-1.5-.516-2.043l-.213.291-.171-.626.232-.271c-.2-.694-.307-1.023-.5-1.637l.155-.28C1098.487,351.659,1098.659,351.627,1098.836,351.579Z" transform="translate(-1079.491 -348.71)"/><path class="b" d="M1287.338,306.685c.65.091,1.026.39,1.108.89s-.208.939-.887,1.248c.9.04,1.411.4,1.514,1.016a1.2,1.2,0,0,1-.6,1.286,4.937,4.937,0,0,1-1.675.478l-1.148.189-.24-.168c-.093-.761-.193-1.505-.313-2.232s-.26-1.445-.408-2.152l.183-.263.856-.141A7.26,7.26,0,0,1,1287.338,306.685Zm-.054,1.24c-.089-.539-.565-.846-1.333-.749l.291,1.88C1287.014,308.874,1287.373,308.464,1287.284,307.925Zm.592,2.141c-.092-.558-.632-.815-1.586-.718l.331,1.908C1287.543,311.041,1287.967,310.62,1287.876,310.067Z" transform="translate(-1259.131 -305.632)"/><path class="b" d="M1428,290.1a2.421,2.421,0,0,1-1.792,1.015,2.079,2.079,0,0,1-1.542-.443,2.779,2.779,0,0,1-.915-1.854,2.385,2.385,0,0,1,2.216-2.725,2.062,2.062,0,0,1,1.458.368,2.642,2.642,0,0,1,1,1.929A2.435,2.435,0,0,1,1428,290.1Zm-2.917-1.794a2.341,2.341,0,0,0,1.473,2.252,1.986,1.986,0,0,0,.531-1.72,2.326,2.326,0,0,0-1.5-2.249A2.034,2.034,0,0,0,1425.079,288.3Z" transform="translate(-1393.045 -285.794)"/><path class="b" d="M1582.713,280.252l.008.38,1.664-.038q-.025-1.1-.076-2.15c.184.01.368.021.542.017s.362-.023.531-.041l.22.224c-.015.722-.012,1.449.005,2.19s.047,1.487.1,2.252l-.2.209c-.184-.01-.367-.011-.55-.007s-.362.013-.537.032c0-.756-.006-1.473-.021-2.141l-1.663.038.008.356c.013.57.04,1.165.072,1.784-.175-.011-.354-.011-.537-.007s-.358.013-.541.032l-.214-.2c.014-.766.019-1.518,0-2.254s-.055-1.467-.1-2.188l.219-.234c.171.011.345.021.523.017s.358-.023.541-.042C1582.7,279.053,1582.7,279.648,1582.713,280.252Z" transform="translate(-1544.906 -278.421)"/><path class="b" d="M1738.041,279.642a2.137,2.137,0,0,1,1.005,2.127c-.08,1.71-1.119,2.457-3.174,2.359l-1.064-.05-.2-.215c.067-.763.125-1.512.159-2.248s.047-1.467.05-2.19l.234-.218,1.121.053A4.243,4.243,0,0,1,1738.041,279.642Zm-.374,2.043c.06-1.262-.476-1.961-1.57-2.032-.058.666-.1,1.343-.135,2.02s-.051,1.35-.056,2.038C1736.99,283.694,1737.6,283,1737.666,281.685Z" transform="translate(-1692.433 -279.179)"/><path class="b" d="M1865.064,293.4l-.32-.651c.776-.98,1.53-1.957,2.243-2.934l-.341-.7c.409-.227.8-.461,1.157-.69.6,1.519,1.263,3.069,2,4.652a10.422,10.422,0,0,0-1.2.739c-.5-1.305-.94-2.4-1.316-3.306C1866.535,291.409,1865.8,292.373,1865.064,293.4Zm2.763-.713c-.318.213-.629.452-.947.709-.247-.318-.5-.628-.768-.91.361-.311.689-.617.98-.917C1867.31,291.946,1867.552,292.308,1867.827,292.689Z" transform="translate(-1817.761 -288.055)"/><path class="b" d="M2023.713,311.829l-.7.22.753-3.963-.2-.355c.387-.19.771-.395,1.16-.619.719,1.561,1.33,2.725,1.8,3.533l.516-2.717.688-.222L2027,311.56l.225.4a10.561,10.561,0,0,0-1.074.744c-.756-1.529-1.4-2.767-1.9-3.726Z" transform="translate(-1970.184 -306.053)"/><path class="b" d="M2170.72,352.562a2.422,2.422,0,0,1-2.033.323,2.079,2.079,0,0,1-1.289-.955,2.779,2.779,0,0,1-.207-2.057,2.386,2.386,0,0,1,3.03-1.777,2.064,2.064,0,0,1,1.238.855,2.643,2.643,0,0,1,.263,2.158A2.435,2.435,0,0,1,2170.72,352.562Zm-2.1-2.7a2.34,2.34,0,0,0,.591,2.626,1.989,1.989,0,0,0,1.1-1.425,2.327,2.327,0,0,0-.621-2.634A2.036,2.036,0,0,0,2168.616,349.86Z" transform="translate(-2108.931 -345.429)"/><path class="b" d="M2325.573,386.311a1.515,1.515,0,0,0-.243-.068q.006-2.266-.2-4.482l.145-.212a5.259,5.259,0,0,0,1.21-.23c-.016,1.117.009,2.186.084,3.2l.942-1.082-.051-.96.174-.2a7.679,7.679,0,0,0,1.054-.157c-.018.9-.01,1.951.04,3.149l1.975-2.406.372.621a44.106,44.106,0,0,0-3.058,3.753,1.394,1.394,0,0,0-.228-.1,1.763,1.763,0,0,0-.259-.075c.028-.941.029-1.887-.006-2.84a27.857,27.857,0,0,0-1.727,2.2A1.332,1.332,0,0,0,2325.573,386.311Z" transform="translate(-2261.136 -377.517)"/><path class="b" d="M2464.1,451.364c-.322.705-.634,1.421-.925,2.146l-.272.1c-.173-.1-.354-.183-.533-.265s-.352-.155-.533-.222c.367-.717.712-1.433,1.033-2.134s.622-1.4.9-2.094l.3-.116c.161.09.326.181.5.261s.364.15.549.219C2464.762,449.954,2464.427,450.654,2464.1,451.364Z" transform="translate(-2392.797 -442.486)"/><path class="b" d="M2545.817,504.5a2.78,2.78,0,0,1-.45-.2,2.218,2.218,0,0,1-.929-3.231,2.36,2.36,0,0,1,3.336-1.085,3.106,3.106,0,0,1,.537.352l.013.67a3.813,3.813,0,0,0-.542-.372,1.376,1.376,0,0,0-2.039.7,1.676,1.676,0,0,0,.75,2.444,4.528,4.528,0,0,0,.439.195Z" transform="translate(-2472.006 -491.492)"/><path class="b" d="M2624.343,540.452l.492-.345q.532.376,1.091.734c.482.309.979.61,1.5.9l-.022.449q-2.069,1.028-3.976,2.167c.617.4,1.258.789,1.931,1.18l-.526.358c-.456-.316-.924-.632-1.39-.931s-.953-.594-1.43-.876l.01-.487q2.124-1,4.033-2.107C2625.459,541.115,2624.886,540.765,2624.343,540.452Z" transform="translate(-2547.05 -530.439)"/></g><g transform="translate(33.318 13.782)"><path class="b" d="M924.831,634.156l-1.135.584-.313-.609,3.01-1.548.313.609-1.147.59,1.737,3.377-.727.374Z" transform="translate(-923.382 -627.7)"/><path class="b" d="M1021.056,613.33l.871,1.229c.206.289.409.586.6.889l.012-.005c-.074-.351-.113-.723-.161-1.064l-.173-1.527.614-.255.926,1.171c.238.312.453.6.656.9l.012-.005c-.092-.343-.154-.7-.22-1.083l-.219-1.465.743-.309.3,3.381-.7.291-.862-1.068a9.9,9.9,0,0,1-.625-.863l-.012.005a9.988,9.988,0,0,1,.171,1.052l.124,1.374-.706.293-2.127-2.623Z" transform="translate(-1016.702 -607.695)"/><path class="b" d="M1165.123,553.716a1.6,1.6,0,0,1-1.059,2.147,1.565,1.565,0,0,1-2.054-1.1,1.6,1.6,0,0,1,1.073-2.145A1.554,1.554,0,0,1,1165.123,553.716Zm-1.552-2.646-.473,1.185-.538.172.251-1.114Zm-.763,3.421c.19.6.632.95,1.1.8.443-.142.616-.672.416-1.3-.154-.482-.548-.97-1.08-.8C1162.693,553.369,1162.644,553.978,1162.808,554.491Z" transform="translate(-1153.094 -549.2)"/><path class="b" d="M1252.251,537.509a.459.459,0,0,1-.888.233.459.459,0,0,1,.888-.233Zm-.389,5.191a.919.919,0,0,0,.532-.381c.106-.2.1-.459-.08-1.141l-.676-2.573.791-.208.735,2.8a1.823,1.823,0,0,1-.06,1.446,1.693,1.693,0,0,1-1,.656Z" transform="translate(-1239.23 -535.818)"/><path class="b" d="M1346.872,511.32a2.118,2.118,0,0,1-1.7,2.694,2.076,2.076,0,0,1-2.43-1.891,2.153,2.153,0,0,1,1.7-2.687A2.071,2.071,0,0,1,1346.872,511.32Zm-3.285.635c.158.9.735,1.539,1.508,1.4s1.092-.94.93-1.864c-.146-.832-.7-1.546-1.5-1.405S1343.428,511.044,1343.587,511.954Z" transform="translate(-1327.2 -509.07)"/><path class="b" d="M1473.729,527.776c-.042-.424-.089-.766-.132-1.069l.715-.071.089.493h.013a1.261,1.261,0,0,1,1.049-.678c.741-.073,1.419.5,1.519,1.507a1.542,1.542,0,0,1-1.3,1.872,1.064,1.064,0,0,1-.949-.341h-.013l.165,1.668-.814.08Zm.894.72a1.233,1.233,0,0,0,.042.223.747.747,0,0,0,.777.5c.516-.051.778-.511.715-1.146-.056-.569-.38-1.005-.9-.953a.776.776,0,0,0-.675.675,1.087,1.087,0,0,0-.006.208Z" transform="translate(-1453.269 -525.482)"/><path class="b" d="M1574.566,500.453l.039.83.777-.036.029.611-.777.036.067,1.428c.019.4.134.593.447.578a1.061,1.061,0,0,0,.317-.048l.042.617a1.8,1.8,0,0,1-.587.114.936.936,0,0,1-.717-.233,1.277,1.277,0,0,1-.3-.9l-.071-1.521-.458.021-.029-.611.459-.021-.028-.6Z" transform="translate(-1549.329 -500.453)"/><path class="b" d="M1645.073,521.02a1.6,1.6,0,0,1-1.683,1.7,1.566,1.566,0,0,1-1.6-1.689,1.6,1.6,0,0,1,1.7-1.7A1.554,1.554,0,0,1,1645.073,521.02Zm-2.441,0c-.007.625.3,1.1.791,1.107.465.006.8-.443.8-1.1.006-.505-.213-1.093-.771-1.1C1642.877,519.923,1642.638,520.485,1642.632,521.024Z" transform="translate(-1615.244 -518.64)"/><path class="b" d="M1746.564,522.292c.026-.372.034-.684.04-.964l.7.048.007.48h.02a1.1,1.1,0,0,1,1.033-.482.934.934,0,0,1,.855.659h.013a1.278,1.278,0,0,1,.419-.378,1.125,1.125,0,0,1,.677-.147c.531.036,1.05.439.979,1.474l-.131,1.9-.8-.055.123-1.785c.037-.537-.127-.869-.519-.9a.624.624,0,0,0-.6.392.86.86,0,0,0-.059.269l-.133,1.938-.8-.055.129-1.871c.031-.451-.126-.782-.5-.808a.657.657,0,0,0-.622.417.933.933,0,0,0-.058.269l-.131,1.911-.8-.055Z" transform="translate(-1716 -520.557)"/><path class="b" d="M1896.992,538.789c-.063.582.349.9.869.971a2.6,2.6,0,0,0,.909-.018l.04.57a2.91,2.91,0,0,1-1.148.044,1.533,1.533,0,0,1-1.421-1.855,1.6,1.6,0,0,1,1.813-1.5,1.408,1.408,0,0,1,1.16,1.758,2.049,2.049,0,0,1-.075.339Zm1.49-.365a.7.7,0,0,0-.553-.878.8.8,0,0,0-.856.677Z" transform="translate(-1860.275 -535.631)"/><path class="b" d="M1993.1,531.5l-.159.816.763.149-.117.6-.763-.149-.274,1.4c-.077.392-.01.608.3.668a1.063,1.063,0,0,0,.32.029l-.106.61a1.8,1.8,0,0,1-.6-.028.936.936,0,0,1-.641-.4,1.276,1.276,0,0,1-.08-.944l.291-1.495-.45-.088.117-.6.45.088.116-.594Z" transform="translate(-1952.121 -530.356)"/><path class="b" d="M2047.741,562.711c.1-.427.172-.739.219-1.021l.685.166-.112.6.02,0a.968.968,0,0,1,1.026-.456.87.87,0,0,1,.184.064l-.18.744a1.333,1.333,0,0,0-.234-.077.721.721,0,0,0-.857.429,1.47,1.47,0,0,0-.077.235l-.4,1.635-.8-.192Z" transform="translate(-2005.704 -559.428)"/><path class="b" d="M2103.3,576.369l.045,1.829c.005.21,0,.467,0,.652l.019.006c.1-.158.227-.376.35-.554l.99-1.505.833.255-1.423,1.873a4.932,4.932,0,0,1-1.685,1.661,1.722,1.722,0,0,1-.94.143l.023-.71a1.512,1.512,0,0,0,1.1-.435.3.3,0,0,0,.088-.126.422.422,0,0,0,.008-.164l-.268-3.191Z" transform="translate(-2057.953 -573.309)"/><path class="b" d="M2190.266,614.877a1.776,1.776,0,0,0,.686.516c.336.127.54.04.615-.159s-.009-.352-.33-.63c-.516-.422-.636-.838-.5-1.2a1.079,1.079,0,0,1,1.5-.513,1.871,1.871,0,0,1,.741.486l-.358.476a1.43,1.43,0,0,0-.575-.416c-.274-.1-.475-.023-.546.164s.038.334.369.623c.481.4.624.776.46,1.226-.209.554-.789.789-1.592.486a2.1,2.1,0,0,1-.841-.56Z" transform="translate(-2143.105 -608.634)"/><path class="b" d="M2274.484,622.176l-.339.759.711.317-.25.559-.71-.317-.583,1.306c-.162.364-.147.59.139.717a1.063,1.063,0,0,0,.3.1l-.24.57a1.789,1.789,0,0,1-.576-.162.939.939,0,0,1-.536-.53,1.276,1.276,0,0,1,.135-.938l.62-1.391-.419-.187.249-.559.419.187.246-.553Z" transform="translate(-2222.521 -617.562)"/><path class="b" d="M2322.707,671.618a4.408,4.408,0,0,0-.319.712l-.651-.347.116-.345-.018-.009a1.184,1.184,0,0,1-1.049-.068.961.961,0,0,1-.445-1.329c.381-.716,1.217-.745,2.271-.177l.026-.047c.1-.188.189-.54-.316-.808a1.712,1.712,0,0,0-.881-.2l.109-.545a2.333,2.333,0,0,1,1.168.3,1.214,1.214,0,0,1,.536,1.838Zm-.326-1.085c-.507-.278-1.051-.431-1.282,0a.429.429,0,0,0,.192.63.672.672,0,0,0,.779-.09.545.545,0,0,0,.1-.149Z" transform="translate(-2268.617 -662.246)"/></g></g></svg>