<svg xmlns="http://www.w3.org/2000/svg" width="360" height="340" viewBox="0 0 360 340"><defs><style>.a{fill:#fe8700;}.b,.c{fill:#fff;}.b{font-size:25px;font-family:RobotoCondensed-Bold, Roboto;font-weight:700;}</style></defs><rect class="a" width="360" height="340"/><g transform="translate(2 24.654)"><text class="b" transform="translate(0 228.346)"><tspan x="65.427" y="26">PRECYZJA MONTAŻU:</tspan><tspan x="103.726" y="53">KONIECZNOŚĆ</tspan></text><g transform="translate(78.779)"><path class="c" d="M309.9,103.791a3.9,3.9,0,1,0-3.9-3.9A3.9,3.9,0,0,0,309.9,103.791Z" transform="translate(-186.804 -58.605)"/><path class="c" d="M341.8,123.78a58.663,58.663,0,0,1,19.775,25.3,3.9,3.9,0,1,0,7.218-2.93,66.451,66.451,0,0,0-22.4-28.659,3.9,3.9,0,1,0-4.6,6.29Z" transform="translate(-207.681 -71.266)"/><path class="c" d="M195.544,95.825H181.426a81.911,81.911,0,0,0-77.811-77.811V3.9a3.9,3.9,0,1,0-7.791,0V18.013A81.911,81.911,0,0,0,18.013,95.825H3.9a3.9,3.9,0,1,0,0,7.791H18.013a81.911,81.911,0,0,0,77.811,77.811v14.118a3.9,3.9,0,1,0,7.791,0V181.426a81.911,81.911,0,0,0,77.811-77.811h14.118a3.9,3.9,0,1,0,0-7.791Zm-21.916,0H146.3A46.819,46.819,0,0,0,103.615,53.14V25.811A74.115,74.115,0,0,1,173.628,95.825Zm-42.746,7.787h7.6a39.027,39.027,0,0,1-34.863,34.867v-7.6a3.9,3.9,0,1,0-7.791,0v7.6a39.023,39.023,0,0,1-34.863-34.863h7.6a3.9,3.9,0,0,0,0-7.791h-7.6A39.023,39.023,0,0,1,95.825,60.961v7.6a3.9,3.9,0,0,0,7.791,0v-7.6a39.023,39.023,0,0,1,34.863,34.863h-7.6a3.893,3.893,0,1,0,0,7.787Zm-35.058-77.8V53.14A46.819,46.819,0,0,0,53.14,95.825H25.811A74.115,74.115,0,0,1,95.825,25.811Zm-70.013,77.8H53.14A46.819,46.819,0,0,0,95.825,146.3v27.328A74.115,74.115,0,0,1,25.811,103.615Zm77.8,70.013V146.3A46.822,46.822,0,0,0,146.3,103.611h27.328A74.118,74.118,0,0,1,103.615,173.628Z"/><path class="c" d="M241.058,221.581H229.372V209.9a3.9,3.9,0,1,0-7.791,0v11.686H209.9a3.9,3.9,0,0,0,0,7.791h11.686v11.686a3.9,3.9,0,1,0,7.791,0V229.372h11.686a3.9,3.9,0,0,0,0-7.791Z" transform="translate(-125.757 -125.757)"/></g></g></svg>