<svg xmlns="http://www.w3.org/2000/svg" width="27.5" height="22.704" viewBox="0 0 27.5 22.704"><defs><style>.a{fill:#64707e;}</style></defs><path class="a" d="M10.463,22.7c-4.59,0-8.217-.8-9.953-2.2l-.034-.027-.031-.031a1.412,1.412,0,0,1-.37-1.484l.016-.044a1.437,1.437,0,0,1,1.312-.9,11.85,11.85,0,0,0,3.133-.432A5.947,5.947,0,0,1,1.4,13.961a1.284,1.284,0,0,1,.448-1.5,1.31,1.31,0,0,1,.391-.2A8.673,8.673,0,0,1,.463,9.078L.452,9.042.445,9.006a1.337,1.337,0,0,1,.619-1.434A1.331,1.331,0,0,1,1.7,7.392a6.706,6.706,0,0,1-.506-1.546A6.466,6.466,0,0,1,1.88,1.538L2.051,1.2A.951.951,0,0,1,3.574.95l.311.311a14.663,14.663,0,0,0,8.455,4.63,6.736,6.736,0,0,1,1.818-3.883A6.38,6.38,0,0,1,18.712,0h.011a9.124,9.124,0,0,1,3.765,1.226c.81-.265,1.787-.676,2.8-1.11a1.279,1.279,0,0,1,1.431.252,1.257,1.257,0,0,1,.273,1.381q-.11.307-.25.6a1.281,1.281,0,0,1,.373.257A1.383,1.383,0,0,1,27.459,3.9l-.012.044a5.276,5.276,0,0,1-2.12,2.909C25.162,15.625,18.558,22.7,10.463,22.7Zm-8.406-3.1c1.635.925,4.752,1.485,8.406,1.485A12.592,12.592,0,0,0,19.8,16.844,15.217,15.217,0,0,0,23.717,6.519V6.475a.95.95,0,0,1,.507-.841,3.424,3.424,0,0,0,1.482-1.64.951.951,0,0,1-.916-1.5,5.235,5.235,0,0,0,.359-.569c-.875.367-1.705.7-2.426.916a1.032,1.032,0,0,1-.793-.085,7.857,7.857,0,0,0-3.2-1.145,5.014,5.014,0,0,0-4.823,5.081.951.951,0,0,1-1.135.933C8.387,6.764,5.79,5.469,3.089,2.755a4.761,4.761,0,0,0-.314,2.784,5.884,5.884,0,0,0,1.4,2.708.951.951,0,0,1-.96,1.546,4.356,4.356,0,0,1-.887-.341,8.034,8.034,0,0,0,2.754,3.195.951.951,0,0,1-.608,1.733,4.276,4.276,0,0,1-1.262-.273,4.337,4.337,0,0,0,3.461,2.452.951.951,0,0,1,.283,1.778,11.427,11.427,0,0,1-4.9,1.269Zm0,0" transform="translate(0 0)"/></svg>