<svg xmlns="http://www.w3.org/2000/svg" width="360" height="340" viewBox="0 0 360 340"><defs><style>.a{fill:#4e00a7;}.b,.c{fill:#fff;}.b{font-size:25px;font-family:RobotoCondensed-Bold, Roboto;font-weight:700;}</style></defs><rect class="a" width="360" height="340"/><g transform="translate(2 24.654)"><text class="b" transform="translate(0 228.346)"><tspan x="73.935" y="26">PEŁNA GWARANCJA</tspan><tspan x="66.269" y="53">KOMFORTU WIDZENIA</tspan></text><g transform="translate(98.723)"><path class="c" d="M208.631,81.89a15.413,15.413,0,0,0-1.775-19.157,9.629,9.629,0,0,1-2.463-8.655,15.412,15.412,0,0,0-8.576-17.222,9.629,9.629,0,0,1-5.423-7.181,15.413,15.413,0,0,0-14.218-12.962,9.629,9.629,0,0,1-7.652-4.737,15.414,15.414,0,0,0-17.94-6.95,9.63,9.63,0,0,1-8.846-1.654,15.413,15.413,0,0,0-19.239,0,9.628,9.628,0,0,1-8.846,1.654,15.413,15.413,0,0,0-17.94,6.95,9.628,9.628,0,0,1-7.651,4.737A15.414,15.414,0,0,0,73.844,29.674a9.628,9.628,0,0,1-5.423,7.181,15.414,15.414,0,0,0-8.576,17.222,9.63,9.63,0,0,1-2.463,8.656,15.414,15.414,0,0,0-1.775,19.157,9.628,9.628,0,0,1,.83,8.961,15.414,15.414,0,0,0,5.265,18.5,9.629,9.629,0,0,1,4.011,8.056,15.415,15.415,0,0,0,11.594,15.353,9.625,9.625,0,0,1,5.147,3.361l-16.1,38.861a6.966,6.966,0,0,0,8.48,9.326L92.461,178.9a1.126,1.126,0,0,1,1.322.548l8.637,16.285a6.966,6.966,0,0,0,12.59-.6l16.777-40.5q.33-.011.66,0l16.777,40.5a6.966,6.966,0,0,0,12.591.6l8.637-16.286a1.125,1.125,0,0,1,1.322-.548l17.623,5.408a6.967,6.967,0,0,0,8.48-9.326l-16.1-38.861a9.625,9.625,0,0,1,5.147-3.361,15.414,15.414,0,0,0,11.594-15.353,9.628,9.628,0,0,1,4.011-8.055A15.414,15.414,0,0,0,207.8,90.852a9.637,9.637,0,0,1,.832-8.962ZM109.614,192.9a1.121,1.121,0,0,1-2.031.1l-8.637-16.285a6.976,6.976,0,0,0-8.2-3.4l-17.623,5.408a1.121,1.121,0,0,1-1.368-1.5l14.281-34.478a15.407,15.407,0,0,0,14.279,6.211,9.632,9.632,0,0,1,8.391,3.251,15.354,15.354,0,0,0,15.787,4.772Zm81.5-14.177-17.623-5.408a6.976,6.976,0,0,0-8.2,3.4L156.657,193a1.122,1.122,0,0,1-2.031-.1l-14.878-35.918a15.4,15.4,0,0,0,15.784-4.78,9.626,9.626,0,0,1,8.391-3.251,15.4,15.4,0,0,0,14.279-6.211l14.282,34.477a1.122,1.122,0,0,1-1.369,1.506ZM203.739,78.7a15.468,15.468,0,0,0-1.334,14.394,9.6,9.6,0,0,1-3.278,11.52,15.468,15.468,0,0,0-6.444,12.94,9.6,9.6,0,0,1-7.218,9.558,15.465,15.465,0,0,0-9.551,7.3l-.017.031a15.47,15.47,0,0,0-1.116,2.413,9.591,9.591,0,0,1-10.183,6.305,15.467,15.467,0,0,0-13.48,5.222,9.6,9.6,0,0,1-11.773,2.2,15.459,15.459,0,0,0-4.251-1.5l-.036-.008a15.454,15.454,0,0,0-5.887,0l-.021,0a15.48,15.48,0,0,0-4.26,1.5,9.6,9.6,0,0,1-11.773-2.2,15.467,15.467,0,0,0-13.48-5.222,9.6,9.6,0,0,1-10.183-6.305,15.494,15.494,0,0,0-1.114-2.41l-.02-.037a15.465,15.465,0,0,0-9.549-7.292,9.6,9.6,0,0,1-7.218-9.558,15.468,15.468,0,0,0-6.444-12.941,9.6,9.6,0,0,1-3.278-11.52A15.468,15.468,0,0,0,60.5,78.7a9.6,9.6,0,0,1,1.105-11.925,15.468,15.468,0,0,0,3.956-13.9A9.6,9.6,0,0,1,70.9,42.145a15.468,15.468,0,0,0,8.712-11.536,9.6,9.6,0,0,1,8.851-8.069,15.466,15.466,0,0,0,12.291-7.61A9.6,9.6,0,0,1,111.923,10.6a15.468,15.468,0,0,0,14.21-2.656,9.6,9.6,0,0,1,11.977,0,15.466,15.466,0,0,0,14.21,2.656,9.6,9.6,0,0,1,11.168,4.326,15.468,15.468,0,0,0,12.291,7.61,9.6,9.6,0,0,1,8.851,8.069,15.47,15.47,0,0,0,8.712,11.536,9.594,9.594,0,0,1,5.339,10.721,15.467,15.467,0,0,0,3.956,13.9A9.6,9.6,0,0,1,203.739,78.7Z" transform="translate(-53.074 -0.001)"/><path class="c" d="M109.931,106.906a2.922,2.922,0,0,0,3.256-2.542,52.478,52.478,0,0,1,104.156.025,2.921,2.921,0,0,0,5.8-.711,58.321,58.321,0,0,0-115.754-.027,2.922,2.922,0,0,0,2.543,3.256Z" transform="translate(-86.218 -32.067)"/><path class="c" d="M220.6,212.226a2.925,2.925,0,0,0-3.255,2.544,52.479,52.479,0,0,1-104.157.023,2.921,2.921,0,1,0-5.8.713,58.321,58.321,0,0,0,115.754-.026A2.92,2.92,0,0,0,220.6,212.226Z" transform="translate(-86.216 -129.545)"/><path class="c" d="M232.159,124.311a5.6,5.6,0,0,0-5.175-3.9l-22.9-.822-7.86-21.53a5.654,5.654,0,0,0-10.623,0l-7.86,21.53-22.9.822a5.655,5.655,0,0,0-3.283,10.1L169.6,144.639l-6.3,22.038a5.654,5.654,0,0,0,8.594,6.244l19.013-12.8,19.013,12.8a5.654,5.654,0,0,0,8.594-6.244l-6.3-22.038,18.047-14.128A5.6,5.6,0,0,0,232.159,124.311Zm-23.641,15.8a5.632,5.632,0,0,0-1.952,6.006l6.19,21.664-18.69-12.581a5.632,5.632,0,0,0-6.315,0L169.06,167.786l6.19-21.663a5.632,5.632,0,0,0-1.951-6.006l-17.742-13.888,22.517-.808a5.632,5.632,0,0,0,5.109-3.712l7.726-21.165,7.726,21.165a5.632,5.632,0,0,0,5.109,3.711l22.516.808Z" transform="translate(-111.862 -57.593)"/></g></g></svg>