<svg xmlns="http://www.w3.org/2000/svg" width="33.527" height="25.394" viewBox="0 0 33.527 25.394"><defs><style>.a{fill:#fff;}</style></defs><path class="a" d="M200.366,110.745l-7.407-4.053a1.36,1.36,0,0,0-2.014,1.194v8.036a1.358,1.358,0,0,0,2,1.2l7.407-3.983a1.36,1.36,0,0,0,.008-2.392Zm-7.456,4.166V108.9l5.536,3.029Zm0,0" transform="translate(-178.442 -99.548)"/><path class="a" d="M33.28,5.993l0-.015A7.667,7.667,0,0,0,31.8,2.087,5.456,5.456,0,0,0,28.187.393L28.02.373,27.962.367C23.529.044,16.836,0,16.769,0h-.012C16.69,0,10,.044,5.524.367L5.465.373,5.308.392A5.318,5.318,0,0,0,1.715,2.138,8.035,8.035,0,0,0,.25,5.959l0,.034C.236,6.106,0,8.779,0,11.463v2.509c0,2.684.237,5.357.247,5.47l0,.017A7.592,7.592,0,0,0,1.72,23.3a5.567,5.567,0,0,0,3.734,1.67c.136.016.254.029.334.043l.078.011c2.559.244,10.583.363,10.923.368h.02c.067,0,6.761-.044,11.193-.367l.059-.006c.056-.007.119-.014.188-.021a5.2,5.2,0,0,0,3.561-1.7,8.034,8.034,0,0,0,1.466-3.821l0-.034c.01-.113.247-2.786.247-5.469V11.463c0-2.684-.237-5.357-.247-5.469Zm-1.718,7.978c0,2.484-.217,5.042-.237,5.277a6.238,6.238,0,0,1-.964,2.722,3.231,3.231,0,0,1-2.319,1.076l-.209.024c-4.287.31-10.728.358-11.025.359-.333,0-8.239-.126-10.72-.356-.127-.021-.264-.037-.409-.053a3.674,3.674,0,0,1-2.513-1.05l-.018-.019A5.659,5.659,0,0,1,2.2,19.256c-.016-.178-.238-2.766-.238-5.285V11.463c0-2.481.216-5.037.237-5.276a6.111,6.111,0,0,1,.964-2.722A3.39,3.39,0,0,1,5.533,2.343l.16-.019c4.349-.312,10.837-.358,11.07-.36s6.718.048,11.029.36l.173.02a3.518,3.518,0,0,1,2.406,1.09l.008.008a5.751,5.751,0,0,1,.945,2.734c.015.168.238,2.762.238,5.286Zm0,0" transform="translate(0.001 0)"/></svg>