<svg xmlns="http://www.w3.org/2000/svg" width="27.5" height="20.829" viewBox="0 0 27.5 20.829"><defs><style>.a{fill:#64707e;}</style></defs><path class="a" d="M198.673,109.986l-6.075-3.324a1.116,1.116,0,0,0-1.652.979v6.591a1.114,1.114,0,0,0,1.644.983l6.076-3.267a1.116,1.116,0,0,0,.007-1.962Zm-6.115,3.417v-4.926l4.541,2.485Zm0,0" transform="translate(-180.69 -100.802)"/><path class="a" d="M27.3,4.916V4.9a6.289,6.289,0,0,0-1.212-3.192A4.475,4.475,0,0,0,23.119.322L22.983.306,22.935.3C19.3.036,13.809,0,13.754,0h-.01C13.689,0,8.2.036,4.531.3L4.482.306,4.353.321A4.362,4.362,0,0,0,1.407,1.754,6.591,6.591,0,0,0,.2,4.888l0,.028C.193,5.008,0,7.2,0,9.4V11.46c0,2.2.194,4.394.2,4.486v.014a6.227,6.227,0,0,0,1.208,3.152,4.566,4.566,0,0,0,3.063,1.37c.112.013.208.024.274.035l.064.009c2.1.2,8.681.3,8.96.3h.017c.055,0,5.545-.036,9.181-.3l.048-.005.154-.017a4.261,4.261,0,0,0,2.921-1.4,6.59,6.59,0,0,0,1.2-3.134l0-.028c.008-.092.2-2.285.2-4.486V9.4c0-2.2-.194-4.394-.2-4.486ZM25.887,11.46c0,2.037-.178,4.136-.195,4.328A5.116,5.116,0,0,1,24.9,18.02,2.65,2.65,0,0,1,23,18.9l-.172.019c-3.516.254-8.8.293-9.043.295-.273,0-6.758-.1-8.793-.292-.1-.017-.217-.03-.336-.043A3.013,3.013,0,0,1,2.6,18.02L2.581,18a4.642,4.642,0,0,1-.775-2.21c-.013-.146-.2-2.269-.2-4.335V9.4c0-2.035.177-4.131.195-4.328A5.012,5.012,0,0,1,2.6,2.841a2.781,2.781,0,0,1,1.942-.919l.131-.016c3.568-.256,8.889-.294,9.08-.295s5.51.039,9.046.295l.142.017a2.886,2.886,0,0,1,1.974.894l.007.007a4.717,4.717,0,0,1,.775,2.242c.012.137.2,2.265.2,4.335Zm0,0" transform="translate(0.001 0)"/></svg>